<?xml version="1.0" encoding="UTF-8"?>
<!DOCTYPE svg PUBLIC "-//W3C//DTD SVG 1.1//EN" "http://www.w3.org/Graphics/SVG/1.1/DTD/svg11.dtd">
<svg xmlns="http://www.w3.org/2000/svg" version="1.1" width="635px" height="191px" style="shape-rendering:geometricPrecision; text-rendering:geometricPrecision; image-rendering:optimizeQuality; fill-rule:evenodd; clip-rule:evenodd" xmlns:xlink="http://www.w3.org/1999/xlink">
<g><path style="opacity:0.333" fill="#dafcff" d="M 1.5,-0.5 C 12.1667,-0.5 22.8333,-0.5 33.5,-0.5C 33.6716,0.491622 33.3382,1.15829 32.5,1.5C 22.2618,0.181238 12.5951,0.181238 3.5,1.5C 3.73731,2.79105 3.40397,3.79105 2.5,4.5C 2.67158,3.50838 2.33825,2.84171 1.5,2.5C 1.5,1.5 1.5,0.5 1.5,-0.5 Z"/></g>
<g><path style="opacity:0.333" fill="#d9fcff" d="M 127.5,0.5 C 127.5,0.166667 127.5,-0.166667 127.5,-0.5C 137.833,-0.5 148.167,-0.5 158.5,-0.5C 158.672,0.491622 158.338,1.15829 157.5,1.5C 147.681,0.505979 137.681,0.172646 127.5,0.5 Z"/></g>
<g><path style="opacity:0.333" fill="#d8fcff" d="M 183.5,-0.5 C 193.833,-0.5 204.167,-0.5 214.5,-0.5C 214.5,-0.166667 214.5,0.166667 214.5,0.5C 204.319,0.172646 194.319,0.505979 184.5,1.5C 184.167,1.5 183.833,1.5 183.5,1.5C 183.5,0.833333 183.5,0.166667 183.5,-0.5 Z"/></g>
<g><path style="opacity:0.333" fill="#d9fcff" d="M 246.5,0.5 C 246.5,0.166667 246.5,-0.166667 246.5,-0.5C 256.833,-0.5 267.167,-0.5 277.5,-0.5C 277.737,0.791047 277.404,1.79105 276.5,2.5C 266.889,0.525654 256.889,-0.141013 246.5,0.5 Z"/></g>
<g><path style="opacity:0.333" fill="#d9fcff" d="M 308.5,-0.5 C 319.167,-0.5 329.833,-0.5 340.5,-0.5C 340.5,0.166667 340.167,0.5 339.5,0.5C 329.319,0.172646 319.319,0.505979 309.5,1.5C 309.167,1.5 308.833,1.5 308.5,1.5C 308.5,0.833333 308.5,0.166667 308.5,-0.5 Z"/></g>
<g><path style="opacity:0.333" fill="#d9fcff" d="M 371.5,0.5 C 371.5,0.166667 371.5,-0.166667 371.5,-0.5C 381.833,-0.5 392.167,-0.5 402.5,-0.5C 402.737,0.791047 402.404,1.79105 401.5,2.5C 391.889,0.525654 381.889,-0.141013 371.5,0.5 Z"/></g>
<g><path style="opacity:0.333" fill="#d9fcff" d="M 429.5,0.5 C 429.5,0.166667 429.5,-0.166667 429.5,-0.5C 439.833,-0.5 450.167,-0.5 460.5,-0.5C 460.737,0.791047 460.404,1.79105 459.5,2.5C 449.889,0.525654 439.889,-0.141013 429.5,0.5 Z"/></g>
<g><path style="opacity:0.333" fill="#d9fcff" d="M 491.5,-0.5 C 502.167,-0.5 512.833,-0.5 523.5,-0.5C 523.5,0.166667 523.167,0.5 522.5,0.5C 512.319,0.172646 502.319,0.505979 492.5,1.5C 492.167,1.5 491.833,1.5 491.5,1.5C 491.5,0.833333 491.5,0.166667 491.5,-0.5 Z"/></g>
<g><path style="opacity:0.333" fill="#d9fcff" d="M 554.5,0.5 C 554.5,0.166667 554.5,-0.166667 554.5,-0.5C 564.833,-0.5 575.167,-0.5 585.5,-0.5C 585.737,0.791047 585.404,1.79105 584.5,2.5C 574.889,0.525654 564.889,-0.141013 554.5,0.5 Z"/></g>
<g><path style="opacity:0.333" fill="#d9fcff" d="M 616.5,-0.5 C 622.5,-0.5 628.5,-0.5 634.5,-0.5C 634.5,-0.166667 634.5,0.166667 634.5,0.5C 628.409,0.211389 622.409,0.544722 616.5,1.5C 616.5,0.833333 616.5,0.166667 616.5,-0.5 Z"/></g>
<g><path style="opacity:0.667" fill="#b6faff" d="M 32.5,1.5 C 32.4403,4.34081 31.7736,7.00747 30.5,9.5C 29.6618,9.15829 29.3284,8.49162 29.5,7.5C 29.8333,5.5 30.1667,3.5 30.5,1.5C 21.5,1.5 12.5,1.5 3.5,1.5C 12.5951,0.181238 22.2618,0.181238 32.5,1.5 Z"/></g>
<g><path style="opacity:0.667" fill="#bffaff" d="M 64.5,-0.5 C 74.8333,-0.5 85.1667,-0.5 95.5,-0.5C 95.634,1.29152 95.3007,2.95819 94.5,4.5C 93.6618,4.15829 93.3284,3.49162 93.5,2.5C 84.6762,1.34269 75.6762,1.17602 66.5,2C 65.944,2.38258 65.6107,2.88258 65.5,3.5C 64.6618,3.15829 64.3284,2.49162 64.5,1.5C 64.5,0.833333 64.5,0.166667 64.5,-0.5 Z"/></g>
<g><path style="opacity:0.667" fill="#aef9ff" d="M 127.5,0.5 C 137.681,0.172646 147.681,0.505979 157.5,1.5C 157.5,1.83333 157.5,2.16667 157.5,2.5C 156.833,2.16667 156.167,1.83333 155.5,1.5C 146.318,1.17336 137.318,1.5067 128.5,2.5C 127.662,2.15829 127.328,1.49162 127.5,0.5 Z"/></g>
<g><path style="opacity:0.667" fill="#b5faff" d="M 184.5,1.5 C 194.319,0.505979 204.319,0.172646 214.5,0.5C 214.142,3.2666 213.475,5.93326 212.5,8.5C 211.662,8.15829 211.328,7.49162 211.5,6.5C 211.421,5.06953 211.754,3.73619 212.5,2.5C 203.525,1.50182 194.525,1.16849 185.5,1.5C 185.167,1.5 184.833,1.5 184.5,1.5 Z"/></g>
<g><path style="opacity:0.667" fill="#adf9ff" d="M 246.5,0.5 C 256.889,-0.141013 266.889,0.525654 276.5,2.5C 276.5,2.83333 276.5,3.16667 276.5,3.5C 275.833,2.83333 275.167,2.16667 274.5,1.5C 265.318,1.17336 256.318,1.5067 247.5,2.5C 246.662,2.15829 246.328,1.49162 246.5,0.5 Z"/></g>
<g><path style="opacity:0.667" fill="#b2f9ff" d="M 309.5,1.5 C 319.319,0.505979 329.319,0.172646 339.5,0.5C 339.634,2.29152 339.301,3.95819 338.5,5.5C 337.662,5.15829 337.328,4.49162 337.5,3.5C 328.895,1.52894 319.895,0.86227 310.5,1.5C 310.167,1.5 309.833,1.5 309.5,1.5 Z"/></g>
<g><path style="opacity:0.667" fill="#b3f9ff" d="M 371.5,0.5 C 381.889,-0.141013 391.889,0.525654 401.5,2.5C 401.5,2.83333 401.5,3.16667 401.5,3.5C 400.833,2.83333 400.167,2.16667 399.5,1.5C 390.827,1.33358 382.16,1.50025 373.5,2C 372.733,3.47049 372.067,4.97049 371.5,6.5C 370.662,6.15829 370.328,5.49162 370.5,4.5C 370.433,3.04125 370.766,1.70792 371.5,0.5 Z"/></g>
<g><path style="opacity:0.667" fill="#adf9ff" d="M 429.5,0.5 C 439.889,-0.141013 449.889,0.525654 459.5,2.5C 459.5,2.83333 459.5,3.16667 459.5,3.5C 458.833,2.83333 458.167,2.16667 457.5,1.5C 448.318,1.17336 439.318,1.5067 430.5,2.5C 429.662,2.15829 429.328,1.49162 429.5,0.5 Z"/></g>
<g><path style="opacity:0.667" fill="#b2f9ff" d="M 492.5,1.5 C 502.319,0.505979 512.319,0.172646 522.5,0.5C 522.634,2.29152 522.301,3.95819 521.5,5.5C 520.662,5.15829 520.328,4.49162 520.5,3.5C 511.895,1.52894 502.895,0.86227 493.5,1.5C 493.167,1.5 492.833,1.5 492.5,1.5 Z"/></g>
<g><path style="opacity:0.667" fill="#b3f9ff" d="M 554.5,0.5 C 564.889,-0.141013 574.889,0.525654 584.5,2.5C 584.5,2.83333 584.5,3.16667 584.5,3.5C 583.833,2.83333 583.167,2.16667 582.5,1.5C 573.827,1.33358 565.16,1.50025 556.5,2C 555.733,3.47049 555.067,4.97049 554.5,6.5C 553.662,6.15829 553.328,5.49162 553.5,4.5C 553.433,3.04125 553.766,1.70792 554.5,0.5 Z"/></g>
<g><path style="opacity:0.667" fill="#b5faff" d="M 634.5,0.5 C 634.5,0.833333 634.5,1.16667 634.5,1.5C 629.167,1.5 623.833,1.5 618.5,1.5C 618.567,2.95875 618.234,4.29208 617.5,5.5C 616.662,5.15829 616.328,4.49162 616.5,3.5C 616.5,2.83333 616.5,2.16667 616.5,1.5C 622.409,0.544722 628.409,0.211389 634.5,0.5 Z"/></g>
<g><path style="opacity:0.439" fill="#cefbff" d="M 274.5,1.5 C 275.167,2.16667 275.833,2.83333 276.5,3.5C 275.87,7.04772 274.87,10.3811 273.5,13.5C 273.672,12.5084 273.338,11.8417 272.5,11.5C 273.374,8.21074 274.041,4.87741 274.5,1.5 Z"/></g>
<g><path style="opacity:0.443" fill="#cefbff" d="M 457.5,1.5 C 458.167,2.16667 458.833,2.83333 459.5,3.5C 458.87,7.04772 457.87,10.3811 456.5,13.5C 456.672,12.5084 456.338,11.8417 455.5,11.5C 456.374,8.21074 457.041,4.87741 457.5,1.5 Z"/></g>
<g><path style="opacity:0.42" fill="#cafbff" d="M 183.5,1.5 C 183.833,1.5 184.167,1.5 184.5,1.5C 184.833,1.5 185.167,1.5 185.5,1.5C 184.163,6.18296 182.83,10.8496 181.5,15.5C 180.662,15.1583 180.328,14.4916 180.5,13.5C 181.097,9.38115 182.097,5.38115 183.5,1.5 Z"/></g>
<g><path style="opacity:0.478" fill="#c6faff" d="M 1.5,2.5 C 2.33825,2.84171 2.67158,3.50838 2.5,4.5C 2.07431,8.42679 1.07431,12.0935 -0.5,15.5C -0.5,12.8333 -0.5,10.1667 -0.5,7.5C 0.309209,5.97237 0.975875,4.3057 1.5,2.5 Z"/></g>
<g><path style="opacity:0.52" fill="#c7fbff" d="M 155.5,1.5 C 156.167,1.83333 156.833,2.16667 157.5,2.5C 157.142,5.2666 156.475,7.93326 155.5,10.5C 154.662,10.1583 154.328,9.49162 154.5,8.5C 154.674,6.13895 155.007,3.80562 155.5,1.5 Z"/></g>
<g><path style="opacity:0.443" fill="#c9fbff" d="M 246.5,0.5 C 246.328,1.49162 246.662,2.15829 247.5,2.5C 245.141,12.6024 242.475,22.6024 239.5,32.5C 238.662,32.1583 238.328,31.4916 238.5,30.5C 240.565,20.2346 243.231,10.2346 246.5,0.5 Z"/></g>
<g><path style="opacity:0.447" fill="#c9fbff" d="M 429.5,0.5 C 429.328,1.49162 429.662,2.15829 430.5,2.5C 428.141,12.6024 425.475,22.6024 422.5,32.5C 421.662,32.1583 421.328,31.4916 421.5,30.5C 423.565,20.2346 426.231,10.2346 429.5,0.5 Z"/></g>
<g><path style="opacity:0.506" fill="#c9fbff" d="M 64.5,1.5 C 64.3284,2.49162 64.6618,3.15829 65.5,3.5C 63.1414,13.6024 60.4747,23.6024 57.5,33.5C 56.6618,33.1583 56.3284,32.4916 56.5,31.5C 58.5924,21.2423 61.2591,11.2423 64.5,1.5 Z"/></g>
<g><path style="opacity:0.49" fill="#c8fbff" d="M 399.5,1.5 C 400.167,2.16667 400.833,2.83333 401.5,3.5C 400.031,9.90447 398.364,16.2378 396.5,22.5C 395.662,22.1583 395.328,21.4916 395.5,20.5C 396.99,14.2059 398.323,7.87257 399.5,1.5 Z"/></g>
<g><path style="opacity:0.49" fill="#c8fbff" d="M 582.5,1.5 C 583.167,2.16667 583.833,2.83333 584.5,3.5C 583.031,9.90447 581.364,16.2378 579.5,22.5C 578.662,22.1583 578.328,21.4916 578.5,20.5C 579.99,14.2059 581.323,7.87257 582.5,1.5 Z"/></g>
<g><path style="opacity:0.424" fill="#c9fbff" d="M 93.5,2.5 C 93.3284,3.49162 93.6618,4.15829 94.5,4.5C 93.6972,8.23875 92.6972,11.9054 91.5,15.5C 90.6618,15.1583 90.3284,14.4916 90.5,13.5C 91.0552,9.60317 92.0552,5.9365 93.5,2.5 Z"/></g>
<g><path style="opacity:0.471" fill="#c9fbff" d="M 308.5,1.5 C 308.833,1.5 309.167,1.5 309.5,1.5C 309.833,1.5 310.167,1.5 310.5,1.5C 309.141,7.60481 307.474,13.6048 305.5,19.5C 304.662,19.1583 304.328,18.4916 304.5,17.5C 305.523,12.0731 306.857,6.7398 308.5,1.5 Z"/></g>
<g><path style="opacity:0.471" fill="#c9fbff" d="M 491.5,1.5 C 491.833,1.5 492.167,1.5 492.5,1.5C 492.833,1.5 493.167,1.5 493.5,1.5C 492.141,7.60481 490.474,13.6048 488.5,19.5C 487.662,19.1583 487.328,18.4916 487.5,17.5C 488.523,12.0731 489.857,6.7398 491.5,1.5 Z"/></g>
<g><path style="opacity:0.529" fill="#c7faff" d="M 127.5,0.5 C 127.328,1.49162 127.662,2.15829 128.5,2.5C 127.652,6.22681 126.652,9.89348 125.5,13.5C 124.662,13.1583 124.328,12.4916 124.5,11.5C 124.926,7.57321 125.926,3.90654 127.5,0.5 Z"/></g>
<g><path style="opacity:0.451" fill="#cafbff" d="M 154.5,8.5 C 154.328,9.49162 154.662,10.1583 155.5,10.5C 153.475,19.2694 151.141,27.9361 148.5,36.5C 147.662,36.1583 147.328,35.4916 147.5,34.5C 149.231,25.5671 151.565,16.9004 154.5,8.5 Z"/></g>
<g><path style="opacity:0.498" fill="#c8fbff" d="M 370.5,4.5 C 370.328,5.49162 370.662,6.15829 371.5,6.5C 370.031,12.9045 368.364,19.2378 366.5,25.5C 365.662,25.1583 365.328,24.4916 365.5,23.5C 366.721,16.9455 368.387,10.6122 370.5,4.5 Z"/></g>
<g><path style="opacity:0.502" fill="#c8fbff" d="M 553.5,4.5 C 553.328,5.49162 553.662,6.15829 554.5,6.5C 553.567,11.6282 552.234,16.6282 550.5,21.5C 549.662,21.1583 549.328,20.4916 549.5,19.5C 550.389,14.2715 551.722,9.27152 553.5,4.5 Z"/></g>
<g><path style="opacity:0.455" fill="#c9fbff" d="M 211.5,6.5 C 211.328,7.49162 211.662,8.15829 212.5,8.5C 210.141,18.6024 207.475,28.6024 204.5,38.5C 203.662,38.1583 203.328,37.4916 203.5,36.5C 205.565,26.2346 208.231,16.2346 211.5,6.5 Z"/></g>
<g><path style="opacity:0.584" fill="#c8fbff" d="M 337.5,3.5 C 337.328,4.49162 337.662,5.15829 338.5,5.5C 336.475,14.2694 334.141,22.9361 331.5,31.5C 330.662,31.1583 330.328,30.4916 330.5,29.5C 332.231,20.5671 334.565,11.9004 337.5,3.5 Z"/></g>
<g><path style="opacity:0.584" fill="#c8fbff" d="M 520.5,3.5 C 520.328,4.49162 520.662,5.15829 521.5,5.5C 519.475,14.2694 517.141,22.9361 514.5,31.5C 513.662,31.1583 513.328,30.4916 513.5,29.5C 515.231,20.5671 517.565,11.9004 520.5,3.5 Z"/></g>
<g><path style="opacity:0.52" fill="#c7faff" d="M 616.5,3.5 C 616.328,4.49162 616.662,5.15829 617.5,5.5C 616.652,9.22681 615.652,12.8935 614.5,16.5C 613.662,16.1583 613.328,15.4916 613.5,14.5C 613.926,10.5732 614.926,6.90654 616.5,3.5 Z"/></g>
<g><path style="opacity:0.52" fill="#c8fbff" d="M 29.5,7.5 C 29.3284,8.49162 29.6618,9.15829 30.5,9.5C 30.1417,12.2666 29.475,14.9333 28.5,17.5C 27.6618,17.1583 27.3284,16.4916 27.5,15.5C 27.5651,12.5718 28.2318,9.90517 29.5,7.5 Z"/></g>
<g><path style="opacity:0.455" fill="#cafbff" d="M 124.5,11.5 C 124.328,12.4916 124.662,13.1583 125.5,13.5C 123.475,22.2694 121.141,30.9361 118.5,39.5C 117.662,39.1583 117.328,38.4916 117.5,37.5C 119.231,28.5671 121.565,19.9004 124.5,11.5 Z"/></g>
<g><path style="opacity:0.478" fill="#c7faff" d="M 272.5,11.5 C 273.338,11.8417 273.672,12.5084 273.5,13.5C 272.477,18.9269 271.143,24.2602 269.5,29.5C 268.662,29.1583 268.328,28.4916 268.5,27.5C 269.226,21.9927 270.56,16.6594 272.5,11.5 Z"/></g>
<g><path style="opacity:0.482" fill="#c5faff" d="M 455.5,11.5 C 456.338,11.8417 456.672,12.5084 456.5,13.5C 455.903,17.6189 454.903,21.6189 453.5,25.5C 452.662,25.1583 452.328,24.4916 452.5,23.5C 453.192,19.4001 454.192,15.4001 455.5,11.5 Z"/></g>
<g><path style="opacity:0.459" fill="#cafbff" d="M 180.5,13.5 C 180.328,14.4916 180.662,15.1583 181.5,15.5C 179.475,24.2694 177.141,32.9361 174.5,41.5C 173.662,41.1583 173.328,40.4916 173.5,39.5C 175.231,30.5671 177.565,21.9004 180.5,13.5 Z"/></g>
<g><path style="opacity:0.447" fill="#cafbff" d="M 613.5,14.5 C 613.328,15.4916 613.662,16.1583 614.5,16.5C 612.475,25.2694 610.141,33.9361 607.5,42.5C 606.662,42.1583 606.328,41.4916 606.5,40.5C 608.231,31.5671 610.565,22.9004 613.5,14.5 Z"/></g>
<g><path style="opacity:0.435" fill="#cefbff" d="M 27.5,15.5 C 27.3284,16.4916 27.6618,17.1583 28.5,17.5C 27.8699,21.0477 26.8699,24.3811 25.5,27.5C 25.6716,26.5084 25.3382,25.8417 24.5,25.5C 25.1301,21.9523 26.1301,18.6189 27.5,15.5 Z"/></g>
<g><path style="opacity:0.463" fill="#cdfbff" d="M 90.5,13.5 C 90.3284,14.4916 90.6618,15.1583 91.5,15.5C 91.1007,19.1165 90.1007,22.4498 88.5,25.5C 88.6716,24.5084 88.3382,23.8417 87.5,23.5C 88.2097,19.9752 89.2097,16.6418 90.5,13.5 Z"/></g>
<g><path style="opacity:0.455" fill="#cafbff" d="M 395.5,20.5 C 395.328,21.4916 395.662,22.1583 396.5,22.5C 394.475,31.2694 392.141,39.9361 389.5,48.5C 388.662,48.1583 388.328,47.4916 388.5,46.5C 390.231,37.5671 392.565,28.9004 395.5,20.5 Z"/></g>
<g><path style="opacity:0.455" fill="#cafbff" d="M 578.5,20.5 C 578.328,21.4916 578.662,22.1583 579.5,22.5C 577.475,31.2694 575.141,39.9361 572.5,48.5C 571.662,48.1583 571.328,47.4916 571.5,46.5C 573.231,37.5671 575.565,28.9004 578.5,20.5 Z"/></g>
<g><path style="opacity:0.435" fill="#ccfbff" d="M 304.5,17.5 C 304.328,18.4916 304.662,19.1583 305.5,19.5C 303.945,26.733 301.945,33.733 299.5,40.5C 299.672,39.5084 299.338,38.8417 298.5,38.5C 300.131,31.2882 302.131,24.2882 304.5,17.5 Z"/></g>
<g><path style="opacity:0.435" fill="#ccfbff" d="M 487.5,17.5 C 487.328,18.4916 487.662,19.1583 488.5,19.5C 486.945,26.733 484.945,33.733 482.5,40.5C 482.672,39.5084 482.338,38.8417 481.5,38.5C 483.131,31.2882 485.131,24.2882 487.5,17.5 Z"/></g>
<g><path style="opacity:0.459" fill="#cafbff" d="M 365.5,23.5 C 365.328,24.4916 365.662,25.1583 366.5,25.5C 364.475,34.2694 362.141,42.9361 359.5,51.5C 358.662,51.1583 358.328,50.4916 358.5,49.5C 360.231,40.5671 362.565,31.9004 365.5,23.5 Z"/></g>
<g><path style="opacity:0.463" fill="#cdfbff" d="M 549.5,19.5 C 549.328,20.4916 549.662,21.1583 550.5,21.5C 550.101,25.1165 549.101,28.4498 547.5,31.5C 547.672,30.5084 547.338,29.8417 546.5,29.5C 547.21,25.9752 548.21,22.6418 549.5,19.5 Z"/></g>
<g><path style="opacity:0.475" fill="#c7faff" d="M 24.5,25.5 C 25.3382,25.8417 25.6716,26.5084 25.5,27.5C 24.4766,32.9269 23.1433,38.2602 21.5,43.5C 20.6618,43.1583 20.3284,42.4916 20.5,41.5C 21.2264,35.9927 22.5597,30.6594 24.5,25.5 Z"/></g>
<g><path style="opacity:0.439" fill="#cefbff" d="M 268.5,27.5 C 268.328,28.4916 268.662,29.1583 269.5,29.5C 268.87,33.0477 267.87,36.3811 266.5,39.5C 266.672,38.5084 266.338,37.8417 265.5,37.5C 266.13,33.9523 267.13,30.6189 268.5,27.5 Z"/></g>
<g><path style="opacity:0.443" fill="#c9fbff" d="M 452.5,23.5 C 452.328,24.4916 452.662,25.1583 453.5,25.5C 451.141,35.6024 448.475,45.6024 445.5,55.5C 444.662,55.1583 444.328,54.4916 444.5,53.5C 446.565,43.2346 449.231,33.2346 452.5,23.5 Z"/></g>
<g><path style="opacity:0.471" fill="#cafbff" d="M 330.5,29.5 C 330.328,30.4916 330.662,31.1583 331.5,31.5C 328.319,43.8925 324.986,56.2259 321.5,68.5C 320.662,68.1583 320.328,67.4916 320.5,66.5C 323.387,53.9439 326.72,41.6105 330.5,29.5 Z"/></g>
<g><path style="opacity:0.471" fill="#cafbff" d="M 513.5,29.5 C 513.328,30.4916 513.662,31.1583 514.5,31.5C 511.319,43.8925 507.986,56.2259 504.5,68.5C 503.662,68.1583 503.328,67.4916 503.5,66.5C 506.387,53.9439 509.72,41.6105 513.5,29.5 Z"/></g>
<g><path style="opacity:0.447" fill="#cafbff" d="M 238.5,30.5 C 238.328,31.4916 238.662,32.1583 239.5,32.5C 237.475,41.2694 235.141,49.9361 232.5,58.5C 231.662,58.1583 231.328,57.4916 231.5,56.5C 233.231,47.5671 235.565,38.9004 238.5,30.5 Z"/></g>
<g><path style="opacity:0.451" fill="#cafbff" d="M 421.5,30.5 C 421.328,31.4916 421.662,32.1583 422.5,32.5C 420.475,41.2694 418.141,49.9361 415.5,58.5C 414.662,58.1583 414.328,57.4916 414.5,56.5C 416.231,47.5671 418.565,38.9004 421.5,30.5 Z"/></g>
<g><path style="opacity:0.427" fill="#c8fbff" d="M 87.5,23.5 C 88.3382,23.8417 88.6716,24.5084 88.5,25.5C 87.4075,32.0901 85.7409,38.4234 83.5,44.5C 83.6716,43.5084 83.3382,42.8417 82.5,42.5C 84.0144,36.108 85.6811,29.7747 87.5,23.5 Z"/></g>
<g><path style="opacity:0.451" fill="#cafbff" d="M 147.5,34.5 C 147.328,35.4916 147.662,36.1583 148.5,36.5C 146.475,45.2694 144.141,53.9361 141.5,62.5C 140.662,62.1583 140.328,61.4916 140.5,60.5C 142.231,51.5671 144.565,42.9004 147.5,34.5 Z"/></g>
<g><path style="opacity:0.502" fill="#c8fbff" d="M 546.5,29.5 C 547.338,29.8417 547.672,30.5084 547.5,31.5C 546.774,37.0073 545.44,42.3406 543.5,47.5C 542.662,47.1583 542.328,46.4916 542.5,45.5C 543.525,40.0668 544.858,34.7335 546.5,29.5 Z"/></g>
<g><path style="opacity:0.431" fill="#c9fbff" d="M 56.5,31.5 C 56.3284,32.4916 56.6618,33.1583 57.5,33.5C 55.4747,42.2694 53.1413,50.9361 50.5,59.5C 49.6618,59.1583 49.3284,58.4916 49.5,57.5C 51.2314,48.5671 53.5647,39.9004 56.5,31.5 Z"/></g>
<g><path style="opacity:0.455" fill="#cafbff" d="M 203.5,36.5 C 203.328,37.4916 203.662,38.1583 204.5,38.5C 202.475,47.2694 200.141,55.9361 197.5,64.5C 196.662,64.1583 196.328,63.4916 196.5,62.5C 198.231,53.5671 200.565,44.9004 203.5,36.5 Z"/></g>
<g><path style="opacity:0.455" fill="#cafbff" d="M 117.5,37.5 C 117.328,38.4916 117.662,39.1583 118.5,39.5C 116.475,48.2694 114.141,56.9361 111.5,65.5C 110.662,65.1583 110.328,64.4916 110.5,63.5C 112.231,54.5671 114.565,45.9004 117.5,37.5 Z"/></g>
<g><path style="opacity:0.478" fill="#c7faff" d="M 265.5,37.5 C 266.338,37.8417 266.672,38.5084 266.5,39.5C 265.477,44.9269 264.143,50.2602 262.5,55.5C 261.662,55.1583 261.328,54.4916 261.5,53.5C 262.226,47.9927 263.56,42.6594 265.5,37.5 Z"/></g>
<g><path style="opacity:0.459" fill="#cdfbff" d="M 173.5,39.5 C 173.328,40.4916 173.662,41.1583 174.5,41.5C 173.87,45.0477 172.87,48.3811 171.5,51.5C 171.672,50.5084 171.338,49.8417 170.5,49.5C 171.13,45.9523 172.13,42.6189 173.5,39.5 Z"/></g>
<g><path style="opacity:0.451" fill="#cafbff" d="M 606.5,40.5 C 606.328,41.4916 606.662,42.1583 607.5,42.5C 605.475,51.2694 603.141,59.9361 600.5,68.5C 599.662,68.1583 599.328,67.4916 599.5,66.5C 601.231,57.5671 603.565,48.9004 606.5,40.5 Z"/></g>
<g><path style="opacity:0.439" fill="#cefbff" d="M 20.5,41.5 C 20.3284,42.4916 20.6618,43.1583 21.5,43.5C 20.8699,47.0477 19.8699,50.3811 18.5,53.5C 18.6716,52.5084 18.3382,51.8417 17.5,51.5C 18.1301,47.9523 19.1301,44.6189 20.5,41.5 Z"/></g>
<g><path style="opacity:0.467" fill="#c9fbff" d="M 82.5,42.5 C 83.3382,42.8417 83.6716,43.5084 83.5,44.5C 78.2362,65.9552 72.5696,87.2885 66.5,108.5C 65.6618,108.158 65.3284,107.492 65.5,106.5C 70.7638,85.0448 76.4304,63.7115 82.5,42.5 Z"/></g>
<g><path style="opacity:0.455" fill="#cafbff" d="M 388.5,46.5 C 388.328,47.4916 388.662,48.1583 389.5,48.5C 387.475,57.2694 385.141,65.9361 382.5,74.5C 381.662,74.1583 381.328,73.4916 381.5,72.5C 383.231,63.5671 385.565,54.9004 388.5,46.5 Z"/></g>
<g><path style="opacity:0.459" fill="#cafbff" d="M 571.5,46.5 C 571.328,47.4916 571.662,48.1583 572.5,48.5C 570.475,57.2694 568.141,65.9361 565.5,74.5C 564.662,74.1583 564.328,73.4916 564.5,72.5C 566.231,63.5671 568.565,54.9004 571.5,46.5 Z"/></g>
<g><path style="opacity:0.435" fill="#c9fbff" d="M 298.5,38.5 C 299.338,38.8417 299.672,39.5084 299.5,40.5C 298.591,47.1412 296.924,53.4745 294.5,59.5C 294.672,58.5084 294.338,57.8417 293.5,57.5C 295.014,51.108 296.681,44.7747 298.5,38.5 Z"/></g>
<g><path style="opacity:0.435" fill="#cafbff" d="M 481.5,38.5 C 482.338,38.8417 482.672,39.5084 482.5,40.5C 481.591,47.1412 479.924,53.4745 477.5,59.5C 477.672,58.5084 477.338,57.8417 476.5,57.5C 478.014,51.108 479.681,44.7747 481.5,38.5 Z"/></g>
<g><path style="opacity:0.459" fill="#cafbff" d="M 358.5,49.5 C 358.328,50.4916 358.662,51.1583 359.5,51.5C 355.475,67.603 351.141,83.603 346.5,99.5C 345.662,99.1583 345.328,98.4916 345.5,97.5C 349.233,81.2269 353.566,65.2269 358.5,49.5 Z"/></g>
<g><path style="opacity:0.463" fill="#cdfbff" d="M 542.5,45.5 C 542.328,46.4916 542.662,47.1583 543.5,47.5C 543.101,51.1165 542.101,54.4498 540.5,57.5C 540.672,56.5084 540.338,55.8417 539.5,55.5C 540.21,51.9752 541.21,48.6418 542.5,45.5 Z"/></g>
<g><path style="opacity:0.478" fill="#c7faff" d="M 17.5,51.5 C 18.3382,51.8417 18.6716,52.5084 18.5,53.5C 17.4766,58.9269 16.1433,64.2602 14.5,69.5C 13.6618,69.1583 13.3284,68.4916 13.5,67.5C 14.2264,61.9927 15.5597,56.6594 17.5,51.5 Z"/></g>
<g><path style="opacity:0.408" fill="#cafbff" d="M 634.5,44.5 C 634.5,47.5 634.5,50.5 634.5,53.5C 632.872,57.3194 631.539,61.3194 630.5,65.5C 629.662,65.1583 629.328,64.4916 629.5,63.5C 630.721,56.9455 632.387,50.6122 634.5,44.5 Z"/></g>
<g><path style="opacity:0.443" fill="#cefbff" d="M 261.5,53.5 C 261.328,54.4916 261.662,55.1583 262.5,55.5C 261.87,59.0477 260.87,62.3811 259.5,65.5C 259.672,64.5084 259.338,63.8417 258.5,63.5C 259.13,59.9523 260.13,56.6189 261.5,53.5 Z"/></g>
<g><path style="opacity:0.447" fill="#cafbff" d="M 444.5,53.5 C 444.328,54.4916 444.662,55.1583 445.5,55.5C 443.475,64.2694 441.141,72.9361 438.5,81.5C 437.662,81.1583 437.328,80.4916 437.5,79.5C 439.231,70.5671 441.565,61.9004 444.5,53.5 Z"/></g>
<g><path style="opacity:0.424" fill="#c6faff" d="M 170.5,49.5 C 171.338,49.8417 171.672,50.5084 171.5,51.5C 170.903,55.6189 169.903,59.6189 168.5,63.5C 167.662,63.1583 167.328,62.4916 167.5,61.5C 168.192,57.4001 169.192,53.4001 170.5,49.5 Z"/></g>
<g><path style="opacity:0.447" fill="#cafbff" d="M 231.5,56.5 C 231.328,57.4916 231.662,58.1583 232.5,58.5C 230.475,67.2694 228.141,75.9361 225.5,84.5C 224.662,84.1583 224.328,83.4916 224.5,82.5C 226.231,73.5671 228.565,64.9004 231.5,56.5 Z"/></g>
<g><path style="opacity:0.451" fill="#cafbff" d="M 414.5,56.5 C 414.328,57.4916 414.662,58.1583 415.5,58.5C 413.475,67.2694 411.141,75.9361 408.5,84.5C 407.662,84.1583 407.328,83.4916 407.5,82.5C 409.231,73.5671 411.565,64.9004 414.5,56.5 Z"/></g>
<g><path style="opacity:0.475" fill="#c7faff" d="M 293.5,57.5 C 294.338,57.8417 294.672,58.5084 294.5,59.5C 293.477,64.9269 292.143,70.2602 290.5,75.5C 289.662,75.1583 289.328,74.4916 289.5,73.5C 290.226,67.9927 291.56,62.6594 293.5,57.5 Z"/></g>
<g><path style="opacity:0.475" fill="#c7faff" d="M 476.5,57.5 C 477.338,57.8417 477.672,58.5084 477.5,59.5C 476.477,64.9269 475.143,70.2602 473.5,75.5C 472.662,75.1583 472.328,74.4916 472.5,73.5C 473.226,67.9927 474.56,62.6594 476.5,57.5 Z"/></g>
<g><path style="opacity:0.451" fill="#cafbff" d="M 140.5,60.5 C 140.328,61.4916 140.662,62.1583 141.5,62.5C 139.475,71.2694 137.141,79.9361 134.5,88.5C 133.662,88.1583 133.328,87.4916 133.5,86.5C 135.231,77.5671 137.565,68.9004 140.5,60.5 Z"/></g>
<g><path style="opacity:0.431" fill="#ccfbff" d="M 49.5,57.5 C 49.3284,58.4916 49.6618,59.1583 50.5,59.5C 48.9453,66.733 46.9453,73.733 44.5,80.5C 44.6716,79.5084 44.3382,78.8417 43.5,78.5C 45.1308,71.2882 47.1308,64.2882 49.5,57.5 Z"/></g>
<g><path style="opacity:0.459" fill="#cafbff" d="M 196.5,62.5 C 196.328,63.4916 196.662,64.1583 197.5,64.5C 195.475,73.2694 193.141,81.9361 190.5,90.5C 189.662,90.1583 189.328,89.4916 189.5,88.5C 191.231,79.5671 193.565,70.9004 196.5,62.5 Z"/></g>
<g><path style="opacity:0.459" fill="#cafbff" d="M 110.5,63.5 C 110.328,64.4916 110.662,65.1583 111.5,65.5C 109.475,74.2694 107.141,82.9361 104.5,91.5C 103.662,91.1583 103.328,90.4916 103.5,89.5C 105.231,80.5671 107.565,71.9004 110.5,63.5 Z"/></g>
<g><path style="opacity:0.447" fill="#cafbff" d="M 629.5,63.5 C 629.328,64.4916 629.662,65.1583 630.5,65.5C 628.475,74.2694 626.141,82.9361 623.5,91.5C 622.662,91.1583 622.328,90.4916 622.5,89.5C 624.231,80.5671 626.565,71.9004 629.5,63.5 Z"/></g>
<g><path style="opacity:0.482" fill="#c5faff" d="M 258.5,63.5 C 259.338,63.8417 259.672,64.5084 259.5,65.5C 258.903,69.6189 257.903,73.6189 256.5,77.5C 255.662,77.1583 255.328,76.4916 255.5,75.5C 256.192,71.4001 257.192,67.4001 258.5,63.5 Z"/></g>
<g><path style="opacity:0.427" fill="#c5faff" d="M 539.5,55.5 C 540.338,55.8417 540.672,56.5084 540.5,57.5C 539.774,63.0073 538.44,68.3406 536.5,73.5C 535.662,73.1583 535.328,72.4916 535.5,71.5C 536.525,66.0668 537.858,60.7335 539.5,55.5 Z"/></g>
<g><path style="opacity:0.463" fill="#cdfbff" d="M 167.5,61.5 C 167.328,62.4916 167.662,63.1583 168.5,63.5C 168.101,67.1165 167.101,70.4498 165.5,73.5C 165.672,72.5084 165.338,71.8417 164.5,71.5C 165.21,67.9752 166.21,64.6418 167.5,61.5 Z"/></g>
<g><path style="opacity:0.451" fill="#cafbff" d="M 599.5,66.5 C 599.328,67.4916 599.662,68.1583 600.5,68.5C 598.475,77.2694 596.141,85.9361 593.5,94.5C 592.662,94.1583 592.328,93.4916 592.5,92.5C 594.231,83.5671 596.565,74.9004 599.5,66.5 Z"/></g>
<g><path style="opacity:0.439" fill="#cefbff" d="M 13.5,67.5 C 13.3284,68.4916 13.6618,69.1583 14.5,69.5C 13.8699,73.0477 12.8699,76.3811 11.5,79.5C 11.6716,78.5084 11.3382,77.8417 10.5,77.5C 11.1301,73.9523 12.1301,70.6189 13.5,67.5 Z"/></g>
<g><path style="opacity:0.431" fill="#c9fbff" d="M 320.5,66.5 C 320.328,67.4916 320.662,68.1583 321.5,68.5C 319.475,77.2694 317.141,85.9361 314.5,94.5C 313.662,94.1583 313.328,93.4916 313.5,92.5C 315.231,83.5671 317.565,74.9004 320.5,66.5 Z"/></g>
<g><path style="opacity:0.431" fill="#c9fbff" d="M 503.5,66.5 C 503.328,67.4916 503.662,68.1583 504.5,68.5C 502.475,77.2694 500.141,85.9361 497.5,94.5C 496.662,94.1583 496.328,93.4916 496.5,92.5C 498.231,83.5671 500.565,74.9004 503.5,66.5 Z"/></g>
<g><path style="opacity:0.455" fill="#cafbff" d="M 381.5,72.5 C 381.328,73.4916 381.662,74.1583 382.5,74.5C 380.475,83.2694 378.141,91.9361 375.5,100.5C 374.662,100.158 374.328,99.4916 374.5,98.5C 376.231,89.5671 378.565,80.9004 381.5,72.5 Z"/></g>
<g><path style="opacity:0.455" fill="#cafbff" d="M 564.5,72.5 C 564.328,73.4916 564.662,74.1583 565.5,74.5C 563.475,83.2694 561.141,91.9361 558.5,100.5C 557.662,100.158 557.328,99.4916 557.5,98.5C 559.231,89.5671 561.565,80.9004 564.5,72.5 Z"/></g>
<g><path style="opacity:0.439" fill="#cefbff" d="M 289.5,73.5 C 289.328,74.4916 289.662,75.1583 290.5,75.5C 289.87,79.0477 288.87,82.3811 287.5,85.5C 287.672,84.5084 287.338,83.8417 286.5,83.5C 287.13,79.9523 288.13,76.6189 289.5,73.5 Z"/></g>
<g><path style="opacity:0.439" fill="#cefbff" d="M 472.5,73.5 C 472.328,74.4916 472.662,75.1583 473.5,75.5C 472.87,79.0477 471.87,82.3811 470.5,85.5C 470.672,84.5084 470.338,83.8417 469.5,83.5C 470.13,79.9523 471.13,76.6189 472.5,73.5 Z"/></g>
<g><path style="opacity:0.467" fill="#cdfbff" d="M 535.5,71.5 C 535.328,72.4916 535.662,73.1583 536.5,73.5C 536.101,77.1165 535.101,80.4498 533.5,83.5C 533.672,82.5084 533.338,81.8417 532.5,81.5C 533.21,77.9752 534.21,74.6418 535.5,71.5 Z"/></g>
<g><path style="opacity:0.502" fill="#c8fbff" d="M 164.5,71.5 C 165.338,71.8417 165.672,72.5084 165.5,73.5C 164.774,79.0073 163.44,84.3406 161.5,89.5C 160.662,89.1583 160.328,88.4916 160.5,87.5C 161.525,82.0668 162.858,76.7335 164.5,71.5 Z"/></g>
<g><path style="opacity:0.478" fill="#c7faff" d="M 10.5,77.5 C 11.3382,77.8417 11.6716,78.5084 11.5,79.5C 10.4766,84.9269 9.14328,90.2602 7.5,95.5C 6.66175,95.1583 6.32842,94.4916 6.5,93.5C 7.22637,87.9927 8.55971,82.6594 10.5,77.5 Z"/></g>
<g><path style="opacity:0.443" fill="#c9fbff" d="M 255.5,75.5 C 255.328,76.4916 255.662,77.1583 256.5,77.5C 254.141,87.6024 251.475,97.6024 248.5,107.5C 247.662,107.158 247.328,106.492 247.5,105.5C 249.565,95.2346 252.231,85.2346 255.5,75.5 Z"/></g>
<g><path style="opacity:0.447" fill="#cafbff" d="M 437.5,79.5 C 437.328,80.4916 437.662,81.1583 438.5,81.5C 436.475,90.2694 434.141,98.9361 431.5,107.5C 430.662,107.158 430.328,106.492 430.5,105.5C 432.231,96.5671 434.565,87.9004 437.5,79.5 Z"/></g>
<g><path style="opacity:0.447" fill="#cafbff" d="M 224.5,82.5 C 224.328,83.4916 224.662,84.1583 225.5,84.5C 223.475,93.2694 221.141,101.936 218.5,110.5C 217.662,110.158 217.328,109.492 217.5,108.5C 219.231,99.5671 221.565,90.9004 224.5,82.5 Z"/></g>
<g><path style="opacity:0.451" fill="#cafbff" d="M 407.5,82.5 C 407.328,83.4916 407.662,84.1583 408.5,84.5C 406.475,93.2694 404.141,101.936 401.5,110.5C 400.662,110.158 400.328,109.492 400.5,108.5C 402.231,99.5671 404.565,90.9004 407.5,82.5 Z"/></g>
<g><path style="opacity:0.478" fill="#c7faff" d="M 286.5,83.5 C 287.338,83.8417 287.672,84.5084 287.5,85.5C 286.477,90.9269 285.143,96.2602 283.5,101.5C 282.662,101.158 282.328,100.492 282.5,99.5C 283.226,93.9927 284.56,88.6594 286.5,83.5 Z"/></g>
<g><path style="opacity:0.478" fill="#c7faff" d="M 469.5,83.5 C 470.338,83.8417 470.672,84.5084 470.5,85.5C 469.477,90.9269 468.143,96.2602 466.5,101.5C 465.662,101.158 465.328,100.492 465.5,99.5C 466.226,93.9927 467.56,88.6594 469.5,83.5 Z"/></g>
<g><path style="opacity:0.455" fill="#cafbff" d="M 133.5,86.5 C 133.328,87.4916 133.662,88.1583 134.5,88.5C 132.475,97.2694 130.141,105.936 127.5,114.5C 126.662,114.158 126.328,113.492 126.5,112.5C 128.231,103.567 130.565,94.9004 133.5,86.5 Z"/></g>
<g><path style="opacity:0.506" fill="#c9fbff" d="M 532.5,81.5 C 533.338,81.8417 533.672,82.5084 533.5,83.5C 528.966,102.639 523.966,121.639 518.5,140.5C 517.662,140.158 517.328,139.492 517.5,138.5C 522.034,119.361 527.034,100.361 532.5,81.5 Z"/></g>
<g><path style="opacity:0.435" fill="#c9fbff" d="M 43.5,78.5 C 44.3382,78.8417 44.6716,79.5084 44.5,80.5C 43.5911,87.1412 41.9244,93.4745 39.5,99.5C 39.6716,98.5084 39.3382,97.8417 38.5,97.5C 40.0144,91.108 41.6811,84.7747 43.5,78.5 Z"/></g>
<g><path style="opacity:0.459" fill="#cafbff" d="M 189.5,88.5 C 189.328,89.4916 189.662,90.1583 190.5,90.5C 188.475,99.2694 186.141,107.936 183.5,116.5C 182.662,116.158 182.328,115.492 182.5,114.5C 184.231,105.567 186.565,96.9004 189.5,88.5 Z"/></g>
<g><path style="opacity:0.459" fill="#cafbff" d="M 103.5,89.5 C 103.328,90.4916 103.662,91.1583 104.5,91.5C 102.475,100.269 100.141,108.936 97.5,117.5C 96.6618,117.158 96.3284,116.492 96.5,115.5C 98.2314,106.567 100.565,97.9004 103.5,89.5 Z"/></g>
<g><path style="opacity:0.447" fill="#cafbff" d="M 622.5,89.5 C 622.328,90.4916 622.662,91.1583 623.5,91.5C 621.475,100.269 619.141,108.936 616.5,117.5C 615.662,117.158 615.328,116.492 615.5,115.5C 617.231,106.567 619.565,97.9004 622.5,89.5 Z"/></g>
<g><path style="opacity:0.463" fill="#cdfbff" d="M 160.5,87.5 C 160.328,88.4916 160.662,89.1583 161.5,89.5C 161.101,93.1165 160.101,96.4498 158.5,99.5C 158.672,98.5084 158.338,97.8417 157.5,97.5C 158.21,93.9752 159.21,90.6418 160.5,87.5 Z"/></g>
<g><path style="opacity:0.451" fill="#cafbff" d="M 592.5,92.5 C 592.328,93.4916 592.662,94.1583 593.5,94.5C 591.475,103.269 589.141,111.936 586.5,120.5C 585.662,120.158 585.328,119.492 585.5,118.5C 587.231,109.567 589.565,100.9 592.5,92.5 Z"/></g>
<g><path style="opacity:0.439" fill="#cefbff" d="M 6.5,93.5 C 6.32842,94.4916 6.66175,95.1583 7.5,95.5C 6.86993,99.0477 5.86993,102.381 4.5,105.5C 4.67158,104.508 4.33825,103.842 3.5,103.5C 4.13007,99.9523 5.13007,96.6189 6.5,93.5 Z"/></g>
<g><path style="opacity:0.435" fill="#ccfbff" d="M 313.5,92.5 C 313.328,93.4916 313.662,94.1583 314.5,94.5C 312.945,101.733 310.945,108.733 308.5,115.5C 308.672,114.508 308.338,113.842 307.5,113.5C 309.131,106.288 311.131,99.2882 313.5,92.5 Z"/></g>
<g><path style="opacity:0.435" fill="#ccfbff" d="M 496.5,92.5 C 496.328,93.4916 496.662,94.1583 497.5,94.5C 495.945,101.733 493.945,108.733 491.5,115.5C 491.672,114.508 491.338,113.842 490.5,113.5C 492.131,106.288 494.131,99.2882 496.5,92.5 Z"/></g>
<g><path style="opacity:0.475" fill="#c7faff" d="M 38.5,97.5 C 39.3382,97.8417 39.6716,98.5084 39.5,99.5C 38.4766,104.927 37.1433,110.26 35.5,115.5C 34.6618,115.158 34.3284,114.492 34.5,113.5C 35.2264,107.993 36.5597,102.659 38.5,97.5 Z"/></g>
<g><path style="opacity:0.459" fill="#cafbff" d="M 374.5,98.5 C 374.328,99.4916 374.662,100.158 375.5,100.5C 373.475,109.269 371.141,117.936 368.5,126.5C 367.662,126.158 367.328,125.492 367.5,124.5C 369.231,115.567 371.565,106.9 374.5,98.5 Z"/></g>
<g><path style="opacity:0.459" fill="#cafbff" d="M 557.5,98.5 C 557.328,99.4916 557.662,100.158 558.5,100.5C 556.475,109.269 554.141,117.936 551.5,126.5C 550.662,126.158 550.328,125.492 550.5,124.5C 552.231,115.567 554.565,106.9 557.5,98.5 Z"/></g>
<g><path style="opacity:0.439" fill="#cefbff" d="M 282.5,99.5 C 282.328,100.492 282.662,101.158 283.5,101.5C 282.87,105.048 281.87,108.381 280.5,111.5C 280.672,110.508 280.338,109.842 279.5,109.5C 280.13,105.952 281.13,102.619 282.5,99.5 Z"/></g>
<g><path style="opacity:0.439" fill="#cefbff" d="M 465.5,99.5 C 465.328,100.492 465.662,101.158 466.5,101.5C 465.87,105.048 464.87,108.381 463.5,111.5C 463.672,110.508 463.338,109.842 462.5,109.5C 463.13,105.952 464.13,102.619 465.5,99.5 Z"/></g>
<g><path style="opacity:0.463" fill="#cdfbff" d="M 345.5,97.5 C 345.328,98.4916 345.662,99.1583 346.5,99.5C 346.101,103.116 345.101,106.45 343.5,109.5C 343.672,108.508 343.338,107.842 342.5,107.5C 343.21,103.975 344.21,100.642 345.5,97.5 Z"/></g>
<g><path style="opacity:0.478" fill="#c4faff" d="M 3.5,103.5 C 4.33825,103.842 4.67158,104.508 4.5,105.5C 4.44025,108.341 3.77358,111.007 2.5,113.5C 1.66175,113.158 1.32842,112.492 1.5,111.5C 1.85831,108.733 2.52498,106.067 3.5,103.5 Z"/></g>
<g><path style="opacity:0.447" fill="#cafbff" d="M 247.5,105.5 C 247.328,106.492 247.662,107.158 248.5,107.5C 246.475,116.269 244.141,124.936 241.5,133.5C 240.662,133.158 240.328,132.492 240.5,131.5C 242.231,122.567 244.565,113.9 247.5,105.5 Z"/></g>
<g><path style="opacity:0.451" fill="#cafbff" d="M 430.5,105.5 C 430.328,106.492 430.662,107.158 431.5,107.5C 429.475,116.269 427.141,124.936 424.5,133.5C 423.662,133.158 423.328,132.492 423.5,131.5C 425.231,122.567 427.565,113.9 430.5,105.5 Z"/></g>
<g><path style="opacity:0.427" fill="#c5faff" d="M 157.5,97.5 C 158.338,97.8417 158.672,98.5084 158.5,99.5C 157.774,105.007 156.44,110.341 154.5,115.5C 153.662,115.158 153.328,114.492 153.5,113.5C 154.525,108.067 155.858,102.733 157.5,97.5 Z"/></g>
<g><path style="opacity:0.451" fill="#cafbff" d="M 217.5,108.5 C 217.328,109.492 217.662,110.158 218.5,110.5C 216.475,119.269 214.141,127.936 211.5,136.5C 210.662,136.158 210.328,135.492 210.5,134.5C 212.231,125.567 214.565,116.9 217.5,108.5 Z"/></g>
<g><path style="opacity:0.455" fill="#cafbff" d="M 400.5,108.5 C 400.328,109.492 400.662,110.158 401.5,110.5C 399.475,119.269 397.141,127.936 394.5,136.5C 393.662,136.158 393.328,135.492 393.5,134.5C 395.231,125.567 397.565,116.9 400.5,108.5 Z"/></g>
<g><path style="opacity:0.431" fill="#c9fbff" d="M 65.5,106.5 C 65.3284,107.492 65.6618,108.158 66.5,108.5C 64.4747,117.269 62.1413,125.936 59.5,134.5C 58.6618,134.158 58.3284,133.492 58.5,132.5C 60.2314,123.567 62.5647,114.9 65.5,106.5 Z"/></g>
<g><path style="opacity:0.478" fill="#c7faff" d="M 279.5,109.5 C 280.338,109.842 280.672,110.508 280.5,111.5C 279.477,116.927 278.143,122.26 276.5,127.5C 275.662,127.158 275.328,126.492 275.5,125.5C 276.226,119.993 277.56,114.659 279.5,109.5 Z"/></g>
<g><path style="opacity:0.478" fill="#c7faff" d="M 462.5,109.5 C 463.338,109.842 463.672,110.508 463.5,111.5C 462.477,116.927 461.143,122.26 459.5,127.5C 458.662,127.158 458.328,126.492 458.5,125.5C 459.226,119.993 460.56,114.659 462.5,109.5 Z"/></g>
<g><path style="opacity:0.455" fill="#cafbff" d="M 126.5,112.5 C 126.328,113.492 126.662,114.158 127.5,114.5C 125.475,123.269 123.141,131.936 120.5,140.5C 119.662,140.158 119.328,139.492 119.5,138.5C 121.231,129.567 123.565,120.9 126.5,112.5 Z"/></g>
<g><path style="opacity:0.435" fill="#cefbff" d="M 34.5,113.5 C 34.3284,114.492 34.6618,115.158 35.5,115.5C 34.8699,119.048 33.8699,122.381 32.5,125.5C 32.6716,124.508 32.3382,123.842 31.5,123.5C 32.1301,119.952 33.1301,116.619 34.5,113.5 Z"/></g>
<g><path style="opacity:0.459" fill="#cdfbff" d="M 182.5,114.5 C 182.328,115.492 182.662,116.158 183.5,116.5C 182.87,120.048 181.87,123.381 180.5,126.5C 180.672,125.508 180.338,124.842 179.5,124.5C 180.13,120.952 181.13,117.619 182.5,114.5 Z"/></g>
<g><path style="opacity:0.518" fill="#cdfbff" d="M 1.5,111.5 C 1.32842,112.492 1.66175,113.158 2.5,113.5C 1.94484,117.397 0.944837,121.063 -0.5,124.5C -0.5,121.5 -0.5,118.5 -0.5,115.5C 0.166667,114.167 0.833333,112.833 1.5,111.5 Z"/></g>
<g><path style="opacity:0.459" fill="#cdfbff" d="M 96.5,115.5 C 96.3284,116.492 96.6618,117.158 97.5,117.5C 96.8699,121.048 95.8699,124.381 94.5,127.5C 94.6716,126.508 94.3382,125.842 93.5,125.5C 94.1301,121.952 95.1301,118.619 96.5,115.5 Z"/></g>
<g><path style="opacity:0.447" fill="#cafbff" d="M 615.5,115.5 C 615.328,116.492 615.662,117.158 616.5,117.5C 614.475,126.269 612.141,134.936 609.5,143.5C 608.662,143.158 608.328,142.492 608.5,141.5C 610.231,132.567 612.565,123.9 615.5,115.5 Z"/></g>
<g><path style="opacity:0.427" fill="#c5faff" d="M 342.5,107.5 C 343.338,107.842 343.672,108.508 343.5,109.5C 342.774,115.007 341.44,120.341 339.5,125.5C 338.662,125.158 338.328,124.492 338.5,123.5C 339.525,118.067 340.858,112.733 342.5,107.5 Z"/></g>
<g><path style="opacity:0.467" fill="#cdfbff" d="M 153.5,113.5 C 153.328,114.492 153.662,115.158 154.5,115.5C 154.101,119.116 153.101,122.45 151.5,125.5C 151.672,124.508 151.338,123.842 150.5,123.5C 151.21,119.975 152.21,116.642 153.5,113.5 Z"/></g>
<g><path style="opacity:0.455" fill="#cafbff" d="M 585.5,118.5 C 585.328,119.492 585.662,120.158 586.5,120.5C 584.475,129.269 582.141,137.936 579.5,146.5C 578.662,146.158 578.328,145.492 578.5,144.5C 580.231,135.567 582.565,126.9 585.5,118.5 Z"/></g>
<g><path style="opacity:0.435" fill="#cafbff" d="M 307.5,113.5 C 308.338,113.842 308.672,114.508 308.5,115.5C 307.591,122.141 305.924,128.474 303.5,134.5C 303.672,133.508 303.338,132.842 302.5,132.5C 304.014,126.108 305.681,119.775 307.5,113.5 Z"/></g>
<g><path style="opacity:0.435" fill="#cafbff" d="M 490.5,113.5 C 491.338,113.842 491.672,114.508 491.5,115.5C 490.591,122.141 488.924,128.474 486.5,134.5C 486.672,133.508 486.338,132.842 485.5,132.5C 487.014,126.108 488.681,119.775 490.5,113.5 Z"/></g>
<g><path style="opacity:0.475" fill="#c7faff" d="M 31.5,123.5 C 32.3382,123.842 32.6716,124.508 32.5,125.5C 31.4766,130.927 30.1433,136.26 28.5,141.5C 27.6618,141.158 27.3284,140.492 27.5,139.5C 28.2264,133.993 29.5597,128.659 31.5,123.5 Z"/></g>
<g><path style="opacity:0.459" fill="#cafbff" d="M 367.5,124.5 C 367.328,125.492 367.662,126.158 368.5,126.5C 364.475,142.603 360.141,158.603 355.5,174.5C 354.662,174.158 354.328,173.492 354.5,172.5C 358.233,156.227 362.566,140.227 367.5,124.5 Z"/></g>
<g><path style="opacity:0.459" fill="#cafbff" d="M 550.5,124.5 C 550.328,125.492 550.662,126.158 551.5,126.5C 547.475,142.603 543.141,158.603 538.5,174.5C 537.662,174.158 537.328,173.492 537.5,172.5C 541.233,156.227 545.566,140.227 550.5,124.5 Z"/></g>
<g><path style="opacity:0.439" fill="#cefbff" d="M 275.5,125.5 C 275.328,126.492 275.662,127.158 276.5,127.5C 275.87,131.048 274.87,134.381 273.5,137.5C 273.672,136.508 273.338,135.842 272.5,135.5C 273.13,131.952 274.13,128.619 275.5,125.5 Z"/></g>
<g><path style="opacity:0.439" fill="#cefbff" d="M 458.5,125.5 C 458.328,126.492 458.662,127.158 459.5,127.5C 458.87,131.048 457.87,134.381 456.5,137.5C 456.672,136.508 456.338,135.842 455.5,135.5C 456.13,131.952 457.13,128.619 458.5,125.5 Z"/></g>
<g><path style="opacity:0.467" fill="#cdfbff" d="M 338.5,123.5 C 338.328,124.492 338.662,125.158 339.5,125.5C 339.101,129.116 338.101,132.45 336.5,135.5C 336.672,134.508 336.338,133.842 335.5,133.5C 336.21,129.975 337.21,126.642 338.5,123.5 Z"/></g>
<g><path style="opacity:0.506" fill="#c9fbff" d="M 150.5,123.5 C 151.338,123.842 151.672,124.508 151.5,125.5C 148.106,141.01 144.106,156.344 139.5,171.5C 138.662,171.158 138.328,170.492 138.5,169.5C 142.19,154.072 146.19,138.738 150.5,123.5 Z"/></g>
<g><path style="opacity:0.424" fill="#c6faff" d="M 179.5,124.5 C 180.338,124.842 180.672,125.508 180.5,126.5C 179.903,130.619 178.903,134.619 177.5,138.5C 176.662,138.158 176.328,137.492 176.5,136.5C 177.192,132.4 178.192,128.4 179.5,124.5 Z"/></g>
<g><path style="opacity:0.424" fill="#c6faff" d="M 93.5,125.5 C 94.3382,125.842 94.6716,126.508 94.5,127.5C 93.9034,131.619 92.9034,135.619 91.5,139.5C 90.6618,139.158 90.3284,138.492 90.5,137.5C 91.1916,133.4 92.1916,129.4 93.5,125.5 Z"/></g>
<g><path style="opacity:0.447" fill="#cafbff" d="M 240.5,131.5 C 240.328,132.492 240.662,133.158 241.5,133.5C 239.475,142.269 237.141,150.936 234.5,159.5C 233.662,159.158 233.328,158.492 233.5,157.5C 235.231,148.567 237.565,139.9 240.5,131.5 Z"/></g>
<g><path style="opacity:0.451" fill="#cafbff" d="M 423.5,131.5 C 423.328,132.492 423.662,133.158 424.5,133.5C 422.475,142.269 420.141,150.936 417.5,159.5C 416.662,159.158 416.328,158.492 416.5,157.5C 418.231,148.567 420.565,139.9 423.5,131.5 Z"/></g>
<g><path style="opacity:0.475" fill="#c7faff" d="M 302.5,132.5 C 303.338,132.842 303.672,133.508 303.5,134.5C 302.477,139.927 301.143,145.26 299.5,150.5C 298.662,150.158 298.328,149.492 298.5,148.5C 299.226,142.993 300.56,137.659 302.5,132.5 Z"/></g>
<g><path style="opacity:0.475" fill="#c7faff" d="M 485.5,132.5 C 486.338,132.842 486.672,133.508 486.5,134.5C 485.477,139.927 484.143,145.26 482.5,150.5C 481.662,150.158 481.328,149.492 481.5,148.5C 482.226,142.993 483.56,137.659 485.5,132.5 Z"/></g>
<g><path style="opacity:0.451" fill="#cafbff" d="M 210.5,134.5 C 210.328,135.492 210.662,136.158 211.5,136.5C 209.475,145.269 207.141,153.936 204.5,162.5C 203.662,162.158 203.328,161.492 203.5,160.5C 205.231,151.567 207.565,142.9 210.5,134.5 Z"/></g>
<g><path style="opacity:0.455" fill="#cafbff" d="M 393.5,134.5 C 393.328,135.492 393.662,136.158 394.5,136.5C 392.475,145.269 390.141,153.936 387.5,162.5C 386.662,162.158 386.328,161.492 386.5,160.5C 388.231,151.567 390.565,142.9 393.5,134.5 Z"/></g>
<g><path style="opacity:0.431" fill="#ccfbff" d="M 58.5,132.5 C 58.3284,133.492 58.6618,134.158 59.5,134.5C 57.9453,141.733 55.9453,148.733 53.5,155.5C 53.6716,154.508 53.3382,153.842 52.5,153.5C 54.1308,146.288 56.1308,139.288 58.5,132.5 Z"/></g>
<g><path style="opacity:0.478" fill="#c7faff" d="M 272.5,135.5 C 273.338,135.842 273.672,136.508 273.5,137.5C 272.477,142.927 271.143,148.26 269.5,153.5C 268.662,153.158 268.328,152.492 268.5,151.5C 269.226,145.993 270.56,140.659 272.5,135.5 Z"/></g>
<g><path style="opacity:0.478" fill="#c7faff" d="M 455.5,135.5 C 456.338,135.842 456.672,136.508 456.5,137.5C 455.477,142.927 454.143,148.26 452.5,153.5C 451.662,153.158 451.328,152.492 451.5,151.5C 452.226,145.993 453.56,140.659 455.5,135.5 Z"/></g>
<g><path style="opacity:0.459" fill="#cafbff" d="M 119.5,138.5 C 119.328,139.492 119.662,140.158 120.5,140.5C 118.475,149.269 116.141,157.936 113.5,166.5C 112.662,166.158 112.328,165.492 112.5,164.5C 114.231,155.567 116.565,146.9 119.5,138.5 Z"/></g>
<g><path style="opacity:0.439" fill="#cefbff" d="M 27.5,139.5 C 27.3284,140.492 27.6618,141.158 28.5,141.5C 27.8699,145.048 26.8699,148.381 25.5,151.5C 25.6716,150.508 25.3382,149.842 24.5,149.5C 25.1301,145.952 26.1301,142.619 27.5,139.5 Z"/></g>
<g><path style="opacity:0.463" fill="#cdfbff" d="M 176.5,136.5 C 176.328,137.492 176.662,138.158 177.5,138.5C 177.101,142.116 176.101,145.45 174.5,148.5C 174.672,147.508 174.338,146.842 173.5,146.5C 174.21,142.975 175.21,139.642 176.5,136.5 Z"/></g>
<g><path style="opacity:0.463" fill="#cdfbff" d="M 90.5,137.5 C 90.3284,138.492 90.6618,139.158 91.5,139.5C 91.1007,143.116 90.1007,146.45 88.5,149.5C 88.6716,148.508 88.3382,147.842 87.5,147.5C 88.2097,143.975 89.2097,140.642 90.5,137.5 Z"/></g>
<g><path style="opacity:0.451" fill="#cafbff" d="M 608.5,141.5 C 608.328,142.492 608.662,143.158 609.5,143.5C 607.475,152.269 605.141,160.936 602.5,169.5C 601.662,169.158 601.328,168.492 601.5,167.5C 603.231,158.567 605.565,149.9 608.5,141.5 Z"/></g>
<g><path style="opacity:0.427" fill="#c8fbff" d="M 335.5,133.5 C 336.338,133.842 336.672,134.508 336.5,135.5C 335.408,142.09 333.741,148.423 331.5,154.5C 331.672,153.508 331.338,152.842 330.5,152.5C 332.014,146.108 333.681,139.775 335.5,133.5 Z"/></g>
<g><path style="opacity:0.431" fill="#c9fbff" d="M 517.5,138.5 C 517.328,139.492 517.662,140.158 518.5,140.5C 516.475,149.269 514.141,157.936 511.5,166.5C 510.662,166.158 510.328,165.492 510.5,164.5C 512.231,155.567 514.565,146.9 517.5,138.5 Z"/></g>
<g><path style="opacity:0.455" fill="#cafbff" d="M 578.5,144.5 C 578.328,145.492 578.662,146.158 579.5,146.5C 577.475,155.269 575.141,163.936 572.5,172.5C 571.662,172.158 571.328,171.492 571.5,170.5C 573.231,161.567 575.565,152.9 578.5,144.5 Z"/></g>
<g><path style="opacity:0.439" fill="#cefbff" d="M 298.5,148.5 C 298.328,149.492 298.662,150.158 299.5,150.5C 298.87,154.048 297.87,157.381 296.5,160.5C 296.672,159.508 296.338,158.842 295.5,158.5C 296.13,154.952 297.13,151.619 298.5,148.5 Z"/></g>
<g><path style="opacity:0.439" fill="#cefbff" d="M 481.5,148.5 C 481.328,149.492 481.662,150.158 482.5,150.5C 481.87,154.048 480.87,157.381 479.5,160.5C 479.672,159.508 479.338,158.842 478.5,158.5C 479.13,154.952 480.13,151.619 481.5,148.5 Z"/></g>
<g><path style="opacity:0.478" fill="#c7faff" d="M 24.5,149.5 C 25.3382,149.842 25.6716,150.508 25.5,151.5C 24.4766,156.927 23.1433,162.26 21.5,167.5C 20.6618,167.158 20.3284,166.492 20.5,165.5C 21.2264,159.993 22.5597,154.659 24.5,149.5 Z"/></g>
<g><path style="opacity:0.502" fill="#c8fbff" d="M 173.5,146.5 C 174.338,146.842 174.672,147.508 174.5,148.5C 173.774,154.007 172.44,159.341 170.5,164.5C 169.662,164.158 169.328,163.492 169.5,162.5C 170.525,157.067 171.858,151.733 173.5,146.5 Z"/></g>
<g><path style="opacity:0.443" fill="#cefbff" d="M 268.5,151.5 C 268.328,152.492 268.662,153.158 269.5,153.5C 268.87,157.048 267.87,160.381 266.5,163.5C 266.672,162.508 266.338,161.842 265.5,161.5C 266.13,157.952 267.13,154.619 268.5,151.5 Z"/></g>
<g><path style="opacity:0.443" fill="#cefbff" d="M 451.5,151.5 C 451.328,152.492 451.662,153.158 452.5,153.5C 451.87,157.048 450.87,160.381 449.5,163.5C 449.672,162.508 449.338,161.842 448.5,161.5C 449.13,157.952 450.13,154.619 451.5,151.5 Z"/></g>
<g><path style="opacity:0.502" fill="#c8fbff" d="M 87.5,147.5 C 88.3382,147.842 88.6716,148.508 88.5,149.5C 87.7736,155.007 86.4403,160.341 84.5,165.5C 83.6618,165.158 83.3284,164.492 83.5,163.5C 84.525,158.067 85.8583,152.733 87.5,147.5 Z"/></g>
<g><path style="opacity:0.467" fill="#c9fbff" d="M 330.5,152.5 C 331.338,152.842 331.672,153.508 331.5,154.5C 329.074,165.76 326.074,176.76 322.5,187.5C 322.672,186.508 322.338,185.842 321.5,185.5C 324.348,174.44 327.348,163.44 330.5,152.5 Z"/></g>
<g><path style="opacity:0.447" fill="#ccfbff" d="M 233.5,157.5 C 233.328,158.492 233.662,159.158 234.5,159.5C 232.945,166.733 230.945,173.733 228.5,180.5C 228.672,179.508 228.338,178.842 227.5,178.5C 229.055,171.266 231.055,164.266 233.5,157.5 Z"/></g>
<g><path style="opacity:0.451" fill="#ccfbff" d="M 416.5,157.5 C 416.328,158.492 416.662,159.158 417.5,159.5C 415.945,166.733 413.945,173.733 411.5,180.5C 411.672,179.508 411.338,178.842 410.5,178.5C 412.055,171.266 414.055,164.266 416.5,157.5 Z"/></g>
<g><path style="opacity:0.478" fill="#c7faff" d="M 295.5,158.5 C 296.338,158.842 296.672,159.508 296.5,160.5C 295.477,165.927 294.143,171.26 292.5,176.5C 291.662,176.158 291.328,175.492 291.5,174.5C 292.226,168.993 293.56,163.659 295.5,158.5 Z"/></g>
<g><path style="opacity:0.478" fill="#c7faff" d="M 478.5,158.5 C 479.338,158.842 479.672,159.508 479.5,160.5C 478.477,165.927 477.143,171.26 475.5,176.5C 474.662,176.158 474.328,175.492 474.5,174.5C 475.226,168.993 476.56,163.659 478.5,158.5 Z"/></g>
<g><path style="opacity:0.455" fill="#ccfbff" d="M 203.5,160.5 C 203.328,161.492 203.662,162.158 204.5,162.5C 202.612,171.065 200.278,179.398 197.5,187.5C 197.672,186.508 197.338,185.842 196.5,185.5C 198.388,176.935 200.722,168.602 203.5,160.5 Z"/></g>
<g><path style="opacity:0.459" fill="#cbfbff" d="M 386.5,160.5 C 386.328,161.492 386.662,162.158 387.5,162.5C 386.319,167.559 384.986,172.559 383.5,177.5C 382.662,177.158 382.328,176.492 382.5,175.5C 383.076,170.191 384.409,165.191 386.5,160.5 Z"/></g>
<g><path style="opacity:0.435" fill="#c9fbff" d="M 52.5,153.5 C 53.3382,153.842 53.6716,154.508 53.5,155.5C 52.5911,162.141 50.9244,168.474 48.5,174.5C 48.6716,173.508 48.3382,172.842 47.5,172.5C 49.0144,166.108 50.6811,159.775 52.5,153.5 Z"/></g>
<g><path style="opacity:0.482" fill="#c5faff" d="M 265.5,161.5 C 266.338,161.842 266.672,162.508 266.5,163.5C 265.903,167.619 264.903,171.619 263.5,175.5C 262.662,175.158 262.328,174.492 262.5,173.5C 263.192,169.4 264.192,165.4 265.5,161.5 Z"/></g>
<g><path style="opacity:0.482" fill="#c5faff" d="M 448.5,161.5 C 449.338,161.842 449.672,162.508 449.5,163.5C 448.903,167.619 447.903,171.619 446.5,175.5C 445.662,175.158 445.328,174.492 445.5,173.5C 446.192,169.4 447.192,165.4 448.5,161.5 Z"/></g>
<g><path style="opacity:0.459" fill="#d0fbff" d="M 112.5,164.5 C 112.328,165.492 112.662,166.158 113.5,166.5C 111.5,174.5 109.5,182.5 107.5,190.5C 107.167,190.5 106.833,190.5 106.5,190.5C 97.1667,189.833 87.8333,189.167 78.5,188.5C 87.5246,188.832 96.5246,188.498 105.5,187.5C 107.7,179.675 110.034,172.008 112.5,164.5 Z"/></g>
<g><path style="opacity:0.439" fill="#cefbff" d="M 20.5,165.5 C 20.3284,166.492 20.6618,167.158 21.5,167.5C 20.8699,171.048 19.8699,174.381 18.5,177.5C 18.6716,176.508 18.3382,175.842 17.5,175.5C 18.1301,171.952 19.1301,168.619 20.5,165.5 Z"/></g>
<g><path style="opacity:0.463" fill="#cdfbff" d="M 169.5,162.5 C 169.328,163.492 169.662,164.158 170.5,164.5C 170.101,168.116 169.101,171.45 167.5,174.5C 167.672,173.508 167.338,172.842 166.5,172.5C 167.21,168.975 168.21,165.642 169.5,162.5 Z"/></g>
<g><path style="opacity:0.463" fill="#cdfbff" d="M 83.5,163.5 C 83.3284,164.492 83.6618,165.158 84.5,165.5C 84.1007,169.116 83.1007,172.45 81.5,175.5C 81.6716,174.508 81.3382,173.842 80.5,173.5C 81.2097,169.975 82.2097,166.642 83.5,163.5 Z"/></g>
<g><path style="opacity:0.451" fill="#ccfbff" d="M 601.5,167.5 C 601.328,168.492 601.662,169.158 602.5,169.5C 600.675,176.465 599.009,183.465 597.5,190.5C 597.167,190.5 596.833,190.5 596.5,190.5C 596.672,189.508 596.338,188.842 595.5,188.5C 597.055,181.266 599.055,174.266 601.5,167.5 Z"/></g>
<g><path style="opacity:0.431" fill="#cbfbff" d="M 510.5,164.5 C 510.328,165.492 510.662,166.158 511.5,166.5C 509.945,173.733 507.945,180.733 505.5,187.5C 505.672,186.508 505.338,185.842 504.5,185.5C 506.131,178.288 508.131,171.288 510.5,164.5 Z"/></g>
<g><path style="opacity:0.467" fill="#cdfbff" d="M 138.5,169.5 C 138.328,170.492 138.662,171.158 139.5,171.5C 138.87,175.048 137.87,178.381 136.5,181.5C 136.672,180.508 136.338,179.842 135.5,179.5C 136.13,175.952 137.13,172.619 138.5,169.5 Z"/></g>
<g><path style="opacity:0.459" fill="#cdfbff" d="M 571.5,170.5 C 571.328,171.492 571.662,172.158 572.5,172.5C 571.87,176.048 570.87,179.381 569.5,182.5C 569.672,181.508 569.338,180.842 568.5,180.5C 569.13,176.952 570.13,173.619 571.5,170.5 Z"/></g>
<g><path style="opacity:0.475" fill="#c8fbff" d="M 47.5,172.5 C 48.3382,172.842 48.6716,173.508 48.5,174.5C 47.6128,179.722 46.2795,184.722 44.5,189.5C 44.6716,188.508 44.3382,187.842 43.5,187.5C 44.4329,182.372 45.7663,177.372 47.5,172.5 Z"/></g>
<g><path style="opacity:0.439" fill="#ccfbff" d="M 291.5,174.5 C 291.328,175.492 291.662,176.158 292.5,176.5C 291.185,181.094 290.185,185.761 289.5,190.5C 289.167,190.5 288.833,190.5 288.5,190.5C 288.672,189.508 288.338,188.842 287.5,188.5C 288.261,183.563 289.595,178.897 291.5,174.5 Z"/></g>
<g><path style="opacity:0.439" fill="#ccfbff" d="M 474.5,174.5 C 474.328,175.492 474.662,176.158 475.5,176.5C 474.185,181.094 473.185,185.761 472.5,190.5C 472.167,190.5 471.833,190.5 471.5,190.5C 471.672,189.508 471.338,188.842 470.5,188.5C 471.261,183.563 472.595,178.897 474.5,174.5 Z"/></g>
<g><path style="opacity:0.478" fill="#c8fbff" d="M 17.5,175.5 C 18.3382,175.842 18.6716,176.508 18.5,177.5C 18.0405,180.877 17.3739,184.211 16.5,187.5C 16.1667,187.5 15.8333,187.5 15.5,187.5C 15.1667,187.5 14.8333,187.5 14.5,187.5C 15.0966,183.381 16.0966,179.381 17.5,175.5 Z"/></g>
<g><path style="opacity:0.463" fill="#ccfbff" d="M 354.5,172.5 C 354.328,173.492 354.662,174.158 355.5,174.5C 354.739,179.437 353.405,184.103 351.5,188.5C 351.5,187.833 351.167,187.5 350.5,187.5C 351.387,182.278 352.721,177.278 354.5,172.5 Z"/></g>
<g><path style="opacity:0.463" fill="#ccfbff" d="M 537.5,172.5 C 537.328,173.492 537.662,174.158 538.5,174.5C 537.739,179.437 536.405,184.103 534.5,188.5C 534.5,187.833 534.167,187.5 533.5,187.5C 534.387,182.278 535.721,177.278 537.5,172.5 Z"/></g>
<g><path style="opacity:0.443" fill="#cbfbff" d="M 262.5,173.5 C 262.328,174.492 262.662,175.158 263.5,175.5C 262.812,179.584 261.812,183.584 260.5,187.5C 260.167,187.5 259.833,187.5 259.5,187.5C 259.167,187.5 258.833,187.5 258.5,187.5C 259.544,182.645 260.877,177.978 262.5,173.5 Z"/></g>
<g><path style="opacity:0.443" fill="#cbfbff" d="M 445.5,173.5 C 445.328,174.492 445.662,175.158 446.5,175.5C 445.812,179.584 444.812,183.584 443.5,187.5C 443.167,187.5 442.833,187.5 442.5,187.5C 442.167,187.5 441.833,187.5 441.5,187.5C 442.544,182.645 443.877,177.978 445.5,173.5 Z"/></g>
<g><path style="opacity:0.518" fill="#c8fbff" d="M 227.5,178.5 C 228.338,178.842 228.672,179.508 228.5,180.5C 228.435,183.428 227.768,186.095 226.5,188.5C 226.672,187.508 226.338,186.842 225.5,186.5C 225.858,183.733 226.525,181.067 227.5,178.5 Z"/></g>
<g><path style="opacity:0.529" fill="#c8fbff" d="M 410.5,178.5 C 411.338,178.842 411.672,179.508 411.5,180.5C 411.435,183.428 410.768,186.095 409.5,188.5C 409.672,187.508 409.338,186.842 408.5,186.5C 408.858,183.733 409.525,181.067 410.5,178.5 Z"/></g>
<g><path style="opacity:0.506" fill="#c5faff" d="M 135.5,179.5 C 136.338,179.842 136.672,180.508 136.5,181.5C 136.483,183.565 136.15,185.565 135.5,187.5C 135.167,187.5 134.833,187.5 134.5,187.5C 134.167,187.5 133.833,187.5 133.5,187.5C 133.858,184.733 134.525,182.067 135.5,179.5 Z"/></g>
<g><path style="opacity:0.427" fill="#c9fbff" d="M 166.5,172.5 C 167.338,172.842 167.672,173.508 167.5,174.5C 166.924,179.809 165.591,184.809 163.5,189.5C 163.672,188.508 163.338,187.842 162.5,187.5C 163.681,182.44 165.015,177.44 166.5,172.5 Z"/></g>
<g><path style="opacity:0.498" fill="#d0fbff" d="M 568.5,180.5 C 569.338,180.842 569.672,181.508 569.5,182.5C 569.643,184.262 569.309,185.929 568.5,187.5C 577.475,188.498 586.475,188.832 595.5,188.5C 585.932,189.817 576.265,189.817 566.5,188.5C 566.858,185.733 567.525,183.067 568.5,180.5 Z"/></g>
<g><path style="opacity:0.427" fill="#c9fbff" d="M 80.5,173.5 C 81.3382,173.842 81.6716,174.508 81.5,175.5C 81.2576,179.479 80.2576,183.146 78.5,186.5C 78.5,185.833 78.1667,185.5 77.5,185.5C 78.1916,181.4 79.1916,177.4 80.5,173.5 Z"/></g>
<g><path style="opacity:0.537" fill="#ccfbff" d="M 382.5,175.5 C 382.328,176.492 382.662,177.158 383.5,177.5C 382.79,181.025 381.79,184.358 380.5,187.5C 380.672,186.508 380.338,185.842 379.5,185.5C 380.13,181.952 381.13,178.619 382.5,175.5 Z"/></g>
<g><path style="opacity:0.267" fill="#dffcff" d="M 259.5,187.5 C 259.833,187.5 260.167,187.5 260.5,187.5C 269.318,188.493 278.318,188.827 287.5,188.5C 283.012,189.166 278.346,189.499 273.5,189.5C 268.449,189.493 263.783,188.827 259.5,187.5 Z"/></g>
<g><path style="opacity:0.733" fill="#adf9ff" d="M 321.5,185.5 C 322.338,185.842 322.672,186.508 322.5,187.5C 322.5,187.833 322.5,188.167 322.5,188.5C 326.988,189.166 331.654,189.499 336.5,189.5C 341.551,189.493 346.217,188.827 350.5,187.5C 351.167,187.5 351.5,187.833 351.5,188.5C 351.5,189.167 351.5,189.833 351.5,190.5C 341.167,190.5 330.833,190.5 320.5,190.5C 320.366,188.708 320.699,187.042 321.5,185.5 Z"/></g>
<g><path style="opacity:0.267" fill="#dffcff" d="M 350.5,187.5 C 346.217,188.827 341.551,189.493 336.5,189.5C 331.654,189.499 326.988,189.166 322.5,188.5C 331.917,188.805 341.25,188.472 350.5,187.5 Z"/></g>
<g><path style="opacity:0.267" fill="#dffcff" d="M 442.5,187.5 C 442.833,187.5 443.167,187.5 443.5,187.5C 452.318,188.493 461.318,188.827 470.5,188.5C 466.012,189.166 461.346,189.499 456.5,189.5C 451.449,189.493 446.783,188.827 442.5,187.5 Z"/></g>
<g><path style="opacity:0.733" fill="#adf9ff" d="M 504.5,185.5 C 505.338,185.842 505.672,186.508 505.5,187.5C 505.5,187.833 505.5,188.167 505.5,188.5C 509.988,189.166 514.654,189.499 519.5,189.5C 524.551,189.493 529.217,188.827 533.5,187.5C 534.167,187.5 534.5,187.833 534.5,188.5C 534.5,189.167 534.5,189.833 534.5,190.5C 524.167,190.5 513.833,190.5 503.5,190.5C 503.366,188.708 503.699,187.042 504.5,185.5 Z"/></g>
<g><path style="opacity:0.267" fill="#dffcff" d="M 533.5,187.5 C 529.217,188.827 524.551,189.493 519.5,189.5C 514.654,189.499 509.988,189.166 505.5,188.5C 514.917,188.805 524.25,188.472 533.5,187.5 Z"/></g>
<g><path style="opacity:0.733" fill="#acf9ff" d="M 14.5,187.5 C 14.8333,187.5 15.1667,187.5 15.5,187.5C 19.7825,188.827 24.4492,189.493 29.5,189.5C 34.3457,189.499 39.0124,189.166 43.5,188.5C 43.5,188.167 43.5,187.833 43.5,187.5C 44.3382,187.842 44.6716,188.508 44.5,189.5C 44.5,189.833 44.5,190.167 44.5,190.5C 34.1667,190.5 23.8333,190.5 13.5,190.5C 13.2627,189.209 13.596,188.209 14.5,187.5 Z"/></g>
<g><path style="opacity:0.268" fill="#e0fdff" d="M 15.5,187.5 C 15.8333,187.5 16.1667,187.5 16.5,187.5C 25.3178,188.493 34.3178,188.827 43.5,188.5C 39.0124,189.166 34.3457,189.499 29.5,189.5C 24.4492,189.493 19.7825,188.827 15.5,187.5 Z"/></g>
<g><path style="opacity:0.733" fill="#acf9ff" d="M 77.5,185.5 C 78.1667,185.5 78.5,185.833 78.5,186.5C 78.5,187.167 78.5,187.833 78.5,188.5C 87.8333,189.167 97.1667,189.833 106.5,190.5C 96.5,190.5 86.5,190.5 76.5,190.5C 76.366,188.708 76.6993,187.042 77.5,185.5 Z"/></g>
<g><path style="opacity:0.733" fill="#abf9ff" d="M 133.5,187.5 C 133.833,187.5 134.167,187.5 134.5,187.5C 138.783,188.827 143.449,189.493 148.5,189.5C 153.346,189.499 158.012,189.166 162.5,188.5C 162.5,188.167 162.5,187.833 162.5,187.5C 163.338,187.842 163.672,188.508 163.5,189.5C 163.5,189.833 163.5,190.167 163.5,190.5C 153.167,190.5 142.833,190.5 132.5,190.5C 132.557,189.391 132.89,188.391 133.5,187.5 Z"/></g>
<g><path style="opacity:0.267" fill="#e0fdff" d="M 134.5,187.5 C 134.833,187.5 135.167,187.5 135.5,187.5C 144.318,188.493 153.318,188.827 162.5,188.5C 158.012,189.166 153.346,189.499 148.5,189.5C 143.449,189.493 138.783,188.827 134.5,187.5 Z"/></g>
<g><path style="opacity:0.733" fill="#acf9ff" d="M 196.5,185.5 C 197.338,185.842 197.672,186.508 197.5,187.5C 197.5,187.833 197.5,188.167 197.5,188.5C 201.988,189.166 206.654,189.499 211.5,189.5C 216.551,189.493 221.217,188.827 225.5,187.5C 225.5,187.167 225.5,186.833 225.5,186.5C 226.338,186.842 226.672,187.508 226.5,188.5C 226.5,189.167 226.5,189.833 226.5,190.5C 216.167,190.5 205.833,190.5 195.5,190.5C 195.366,188.708 195.699,187.042 196.5,185.5 Z"/></g>
<g><path style="opacity:0.267" fill="#dffcff" d="M 225.5,187.5 C 221.217,188.827 216.551,189.493 211.5,189.5C 206.654,189.499 201.988,189.166 197.5,188.5C 206.917,188.805 216.25,188.472 225.5,187.5 Z"/></g>
<g><path style="opacity:0.732" fill="#acf9ff" d="M 258.5,187.5 C 258.833,187.5 259.167,187.5 259.5,187.5C 263.783,188.827 268.449,189.493 273.5,189.5C 278.346,189.499 283.012,189.166 287.5,188.5C 288.338,188.842 288.672,189.508 288.5,190.5C 278.167,190.5 267.833,190.5 257.5,190.5C 257.557,189.391 257.89,188.391 258.5,187.5 Z"/></g>
<g><path style="opacity:0.733" fill="#acf9ff" d="M 379.5,185.5 C 380.338,185.842 380.672,186.508 380.5,187.5C 380.5,187.833 380.5,188.167 380.5,188.5C 384.988,189.166 389.654,189.499 394.5,189.5C 399.551,189.493 404.217,188.827 408.5,187.5C 408.5,187.167 408.5,186.833 408.5,186.5C 409.338,186.842 409.672,187.508 409.5,188.5C 409.5,189.167 409.5,189.833 409.5,190.5C 399.167,190.5 388.833,190.5 378.5,190.5C 378.366,188.708 378.699,187.042 379.5,185.5 Z"/></g>
<g><path style="opacity:0.267" fill="#dffcff" d="M 408.5,187.5 C 404.217,188.827 399.551,189.493 394.5,189.5C 389.654,189.499 384.988,189.166 380.5,188.5C 389.917,188.805 399.25,188.472 408.5,187.5 Z"/></g>
<g><path style="opacity:0.732" fill="#acf9ff" d="M 441.5,187.5 C 441.833,187.5 442.167,187.5 442.5,187.5C 446.783,188.827 451.449,189.493 456.5,189.5C 461.346,189.499 466.012,189.166 470.5,188.5C 471.338,188.842 471.672,189.508 471.5,190.5C 461.167,190.5 450.833,190.5 440.5,190.5C 440.557,189.391 440.89,188.391 441.5,187.5 Z"/></g>
<g><path style="opacity:0.733" fill="#abf9ff" d="M 566.5,188.5 C 576.265,189.817 585.932,189.817 595.5,188.5C 596.338,188.842 596.672,189.508 596.5,190.5C 586.167,190.5 575.833,190.5 565.5,190.5C 565.833,189.833 566.167,189.167 566.5,188.5 Z"/></g>
</svg>
