<?xml version="1.0" encoding="UTF-8"?>
<svg version="1.1" xmlns="http://www.w3.org/2000/svg" width="500" height="500">
<path d="M0 0 C6.82090463 0.0985715 14.15333424 0.32122661 19.94384766 4.31689453 C21.12353516 7.14501953 21.12353516 7.14501953 21.94384766 10.31689453 C22.59498167 12.03120831 23.26094962 13.73998458 23.94384766 15.44189453 C24.43884766 16.68326172 24.43884766 16.68326172 24.94384766 17.94970703 C25.9002668 20.31168575 25.9002668 20.31168575 27.08447266 22.46142578 C28.29456093 25.07411638 27.77587475 26.61280646 26.94384766 29.31689453 C26.28384766 30.30689453 25.62384766 31.29689453 24.94384766 32.31689453 C24.6937427 33.83141898 24.49024513 35.35395698 24.31884766 36.87939453 C23.14722937 43.31384655 19.54650678 47.80107803 14.94384766 52.31689453 C13.62384766 52.97689453 12.30384766 53.63689453 10.94384766 54.31689453 C11.27384766 57.28689453 11.60384766 60.25689453 11.94384766 63.31689453 C9.96384766 63.81189453 9.96384766 63.81189453 7.94384766 64.31689453 C7.81884766 56.69189453 7.81884766 56.69189453 8.94384766 53.31689453 C3.80908519 54.44074806 3.80908519 54.44074806 -1.05615234 56.31689453 C-7.58948568 56.55022786 -7.58948568 56.55022786 -10.05615234 55.31689453 C-9.72615234 60.92689453 -9.39615234 66.53689453 -9.05615234 72.31689453 C-10.54115234 72.81189453 -10.54115234 72.81189453 -12.05615234 73.31689453 C-14.05615234 71.31689453 -14.05615234 71.31689453 -14.09960938 69.4375 C-14.00534668 68.69387207 -13.91108398 67.95024414 -13.81396484 67.18408203 C-13.71728516 66.37841797 -13.62060547 65.57275391 -13.52099609 64.74267578 C-13.40884766 63.90091797 -13.29669922 63.05916016 -13.18115234 62.19189453 C-13.02453125 60.91765625 -13.02453125 60.91765625 -12.86474609 59.61767578 C-12.60501084 57.51618143 -12.33183918 55.41635581 -12.05615234 53.31689453 C-13.04615234 53.31689453 -14.03615234 53.31689453 -15.05615234 53.31689453 C-14.91167252 51.81676356 -14.7654802 50.31679751 -14.61865234 48.81689453 C-14.53228516 47.90037109 -14.44591797 46.98384766 -14.35693359 46.03955078 C-14.1775432 44.41571821 -13.95931349 42.79434825 -13.66162109 41.18798828 C-12.96717857 37.41052618 -13.05753314 34.91420152 -14.49365234 31.44189453 C-16.29202349 26.70148765 -16.39922126 22.20254057 -16.43115234 17.19189453 C-16.44460693 16.4276416 -16.45806152 15.66338867 -16.47192383 14.87597656 C-16.37135209 1.79598429 -11.9402266 0.01912476 0 0 Z M-3.05615234 8.31689453 C-3.04455078 9.00654297 -3.03294922 9.69619141 -3.02099609 10.40673828 C-2.97707699 14.98059926 -2.99217444 19.46079789 -3.55615234 24.00439453 C-4.72661991 32.01424662 -4.72661991 32.01424662 -2.05615234 39.31689453 C-2.35320196 43.47558918 -2.72553383 45.82096676 -5.05615234 49.31689453 C-0.57537222 50.99364718 -0.57537222 50.99364718 4.08447266 50.85986328 C7.03095092 48.41478153 6.98770421 45.1117825 7.44384766 41.50439453 C8.17298445 35.83047795 9.05697989 32.73620993 12.94384766 28.31689453 C14.63910024 24.17452002 15.47141389 20.66511936 13.81884766 16.44189453 C11.97997977 14.35784427 10.31300985 12.76896168 7.94384766 11.31689453 C7.28384766 11.31689453 6.62384766 11.31689453 5.94384766 11.31689453 C4.82939268 13.54580448 4.7790448 14.84744559 4.75634766 17.31689453 C4.73507813 18.36876953 4.73507813 18.36876953 4.71337891 19.44189453 C4.77872443 21.56214391 4.77872443 21.56214391 6.94384766 23.31689453 C7.06884766 26.94189453 7.06884766 26.94189453 6.94384766 30.31689453 C5.62384766 30.31689453 4.30384766 30.31689453 2.94384766 30.31689453 C2.87675111 27.43174307 2.82174746 24.818862 3.50634766 22.00439453 C4.15274005 18.03369841 3.50463021 14.2768821 2.94384766 10.31689453 C0.96384766 9.65689453 -1.01615234 8.99689453 -3.05615234 8.31689453 Z " fill="#ABFB20" transform="translate(136.05615234375,192.68310546875)"/>
<path d="M0 0 C3.4965634 4.32272038 3.42690003 8.20099039 3.3125 13.5 C3.31572266 14.24636719 3.31894531 14.99273437 3.32226562 15.76171875 C3.29108542 18.96477652 3.2344042 21.43978301 1.98828125 24.41796875 C0.43618155 28.47305927 0.79166045 32.51410254 0.875 36.8125 C0.88402344 37.69615234 0.89304688 38.57980469 0.90234375 39.49023438 C0.92580363 41.66027359 0.96167135 43.83017247 1 46 C0.01 46.33 -0.98 46.66 -2 47 C-1.95875 47.9075 -1.9175 48.815 -1.875 49.75 C-1.99939717 52.98432638 -2.18499342 54.38816126 -4 57 C-6.1640625 57.609375 -6.1640625 57.609375 -8.625 57.75 C-9.85089844 57.83507812 -9.85089844 57.83507812 -11.1015625 57.921875 C-11.72804687 57.94765625 -12.35453125 57.9734375 -13 58 C-13.02685938 60.14576637 -13.04633088 62.29162645 -13.0625 64.4375 C-13.07410156 65.63246094 -13.08570313 66.82742188 -13.09765625 68.05859375 C-13.33901792 70.88873341 -13.33901792 70.88873341 -12 72 C-11.95919217 73.99958364 -11.95745644 76.00045254 -12 78 C-13.9375 78.5625 -13.9375 78.5625 -16 79 C-17 78 -17 78 -17.02172852 76.05053711 C-16.95103149 74.8015564 -16.95103149 74.8015564 -16.87890625 73.52734375 C-16.83056641 72.62822266 -16.78222656 71.72910156 -16.73242188 70.80273438 C-16.67634766 69.85720703 -16.62027344 68.91167969 -16.5625 67.9375 C-16.48418945 66.5134082 -16.48418945 66.5134082 -16.40429688 65.06054688 C-16.27418642 62.70673048 -16.13920888 60.35329301 -16 58 C-17.33417969 57.81630859 -17.33417969 57.81630859 -18.6953125 57.62890625 C-21.7410805 57.04927428 -24.08548623 56.24772617 -26.875 54.9375 C-27.65617188 54.57527344 -28.43734375 54.21304688 -29.2421875 53.83984375 C-29.82226562 53.56269531 -30.40234375 53.28554688 -31 53 C-30.67 51.68 -30.34 50.36 -30 49 C-24.72 49 -19.44 49 -14 49 C-14.495 46.525 -14.495 46.525 -15 44 C-19.32564205 42.41744803 -23.428721 41.54855348 -28 41 C-28.15855469 40.443125 -28.31710938 39.88625 -28.48046875 39.3125 C-29.79998848 34.99672275 -31.15182005 31.62117226 -33.875 28 C-35.3307351 25.75426231 -36.00788613 24.54217162 -35.96875 21.8515625 C-34.13883926 14.98939721 -29.2241757 9.61593834 -24 5 C-20.30818397 2.86263283 -17.00652872 1.59026071 -12.8125 0.875 C-2.60640632 -0.91224221 -2.60640632 -0.91224221 0 0 Z M-21 10 C-24.04180693 14.56271039 -22.89888782 18.74935367 -22 24 C-21.17090564 26.7927389 -20.16287587 29.32032951 -19 32 C-16.03 31.67 -13.06 31.34 -10 31 C-9.81940664 25.13071596 -10.10908055 20.55457588 -12 15 C-13.98 15.99 -13.98 15.99 -16 17 C-15.95875 16.21625 -15.9175 15.4325 -15.875 14.625 C-15.71271266 11.83883881 -15.71271266 11.83883881 -18 10 C-18.99 10 -19.98 10 -21 10 Z " fill="#AEFA24" transform="translate(219,208)"/>
<path d="M0 0 C6.76470588 3.92352941 6.76470588 3.92352941 8 8 C8.125 10.75 8.125 10.75 8 13 C7.01 13.33 6.02 13.66 5 14 C5 14.66 5 15.32 5 16 C4.01 16 3.02 16 2 16 C2.350625 16.5775 2.70125 17.155 3.0625 17.75 C4.14917407 20.35801776 3.93065133 21.39417629 3 24 C1.68 24 0.36 24 -1 24 C-0.95875 22.88625 -0.9175 21.7725 -0.875 20.625 C-0.58878141 16.95633975 -0.58878141 16.95633975 -3 15 C-3.11214844 14.34515625 -3.22429687 13.6903125 -3.33984375 13.015625 C-3.82425438 10.80082641 -3.82425438 10.80082641 -6.06640625 9.734375 C-6.89011719 9.40953125 -7.71382813 9.0846875 -8.5625 8.75 C-9.38878906 8.41484375 -10.21507812 8.0796875 -11.06640625 7.734375 C-11.70449219 7.49203125 -12.34257812 7.2496875 -13 7 C-12.71459486 8.56365584 -12.42136502 10.12588434 -12.125 11.6875 C-11.88136719 12.99267578 -11.88136719 12.99267578 -11.6328125 14.32421875 C-11.42398437 15.20722656 -11.21515625 16.09023437 -11 17 C-10.82210938 17.83789062 -10.64421875 18.67578125 -10.4609375 19.5390625 C-8.14657425 23.43758884 -4.49459729 24.76235336 -0.5 26.6875 C1.05359833 27.45919704 2.60575242 28.23381044 4.15625 29.01171875 C4.84525391 29.34647217 5.53425781 29.68122559 6.24414062 30.02612305 C8 31 8 31 10 33 C10.44415914 35.62377453 10.74096888 38.10748522 10.9375 40.75 C11.01806641 41.45382813 11.09863281 42.15765625 11.18164062 42.8828125 C11.48684231 46.93709657 11.21340876 49.28238482 8.62890625 52.515625 C6 55 6 55 4 55 C4 64.24 4 73.48 4 83 C2.515 83.495 2.515 83.495 1 84 C0.14518815 74.491862 -0.04377631 65.52245158 1 56 C-0.134375 56.309375 -1.26875 56.61875 -2.4375 56.9375 C-6.85342487 58.02969494 -11.43129901 59.10813493 -16 59 C-16.99 58.34 -17.98 57.68 -19 57 C-19.06790973 60.93876418 -19.10630814 64.43656688 -18.375 68.3125 C-18 71 -18 71 -20 74 C-21.65 73.67 -23.3 73.34 -25 73 C-26.16896069 69.49311793 -25.74754734 68.64186884 -24.5625 65.25 C-23.22616879 60.96752462 -22.31795424 57.51855314 -23 53 C-24.21039502 51.07640926 -25.5021103 49.38107259 -27.00390625 47.67578125 C-28 46 -28 46 -27.83984375 43.85546875 C-27.56269531 43.24316406 -27.28554687 42.63085938 -27 42 C-24.11788698 41.03929566 -22.30149956 40.89418117 -19.3125 40.9375 C-18.10013672 40.95103516 -18.10013672 40.95103516 -16.86328125 40.96484375 C-16.24839844 40.97644531 -15.63351563 40.98804688 -15 41 C-14.75765625 41.56589844 -14.5153125 42.13179687 -14.265625 42.71484375 C-13.93046875 43.44832031 -13.5953125 44.18179688 -13.25 44.9375 C-12.92515625 45.66839844 -12.6003125 46.39929688 -12.265625 47.15234375 C-11.13718426 49.14286794 -11.13718426 49.14286794 -9.03515625 49.88671875 C-6.68445402 50.2374443 -6.68445402 50.2374443 -4.1875 47.875 C-1.77041996 45.26109335 -1.77041996 45.26109335 -1.875 42.4375 C-4.72882257 36.25421775 -12.18693742 33.70837865 -17.94140625 30.78125 C-23.83374844 27.3496944 -25.91977739 23.92748009 -27.6484375 17.46875 C-28 15 -28 15 -27.0625 11.625 C-23.00785728 6.46454563 -17.32432399 4.05182298 -11.375 1.6875 C-10.72015625 1.41099609 -10.0653125 1.13449219 -9.390625 0.84960938 C-3.43053389 -1.54528554 -3.43053389 -1.54528554 0 0 Z " fill="#ABFA23" transform="translate(271,192)"/>
<path d="M0 0 C2.6875 0.3125 2.6875 0.3125 4.875 1.875 C8.93708577 7.337805 9.23565369 13.73465573 8.6875 20.3125 C8.1925 21.7975 8.1925 21.7975 7.6875 23.3125 C7.39162159 28.44686065 7.58772496 33.28495698 8.6875 38.3125 C8.1925 39.3025 8.1925 39.3025 7.6875 40.3125 C7.45475791 43.19160588 7.26777243 46.05396495 7.125 48.9375 C7.06022461 50.14019531 7.06022461 50.14019531 6.99414062 51.3671875 C6.88798543 53.3487511 6.78723145 55.33060271 6.6875 57.3125 C5.6975 57.8075 5.6975 57.8075 4.6875 58.3125 C3.62078048 55.11234144 3.73904528 53.42705706 4.125 50.125 C4.22683594 49.22394531 4.32867187 48.32289063 4.43359375 47.39453125 C4.55927734 46.36392578 4.55927734 46.36392578 4.6875 45.3125 C3.6975 45.8075 3.6975 45.8075 2.6875 46.3125 C2.37508545 49.02696979 2.17413408 51.65159361 2.0625 54.375 C2.02382813 55.13361328 1.98515625 55.89222656 1.9453125 56.67382812 C1.85076438 58.55297195 1.76803244 60.43270336 1.6875 62.3125 C0.6975 62.3125 -0.2925 62.3125 -1.3125 62.3125 C-1.3125 55.3825 -1.3125 48.4525 -1.3125 41.3125 C-6.62494564 41.3125 -7.95206433 41.79603994 -11.9296875 44.80078125 C-13.64365263 46.3848791 -13.64365263 46.3848791 -13.75 49.625 C-13.605625 50.511875 -13.46125 51.39875 -13.3125 52.3125 C-14.6325 52.3125 -15.9525 52.3125 -17.3125 52.3125 C-17.209375 51.36375 -17.10625 50.415 -17 49.4375 C-16.98605305 45.94378885 -17.94674339 43.78995584 -19.625 40.75 C-25.64596346 29.43943305 -26.1027446 15.86549134 -27.3125 3.3125 C-23.89155758 1.03187172 -22.63062778 1.09324993 -18.625 1.1875 C-17.13419922 1.21457031 -17.13419922 1.21457031 -15.61328125 1.2421875 C-14.85402344 1.26539063 -14.09476562 1.28859375 -13.3125 1.3125 C-12.35872816 5.31570153 -12.1967384 9.03461747 -12.21484375 13.14453125 C-12.21806641 14.43681641 -12.22128906 15.72910156 -12.22460938 17.06054688 C-12.23296335 18.41536526 -12.24142828 19.77018297 -12.25 21.125 C-12.25502 22.49934735 -12.25958203 23.87369645 -12.26367188 25.24804688 C-12.27544332 28.60290924 -12.29188717 31.95768221 -12.3125 35.3125 C-11.69375 34.8175 -11.075 34.3225 -10.4375 33.8125 C-8.3125 32.3125 -8.3125 32.3125 -6.3125 32.3125 C-6.2852384 30.27090905 -6.26598655 28.22921037 -6.25 26.1875 C-6.23839844 25.05054688 -6.22679687 23.91359375 -6.21484375 22.7421875 C-6.23284052 19.32256013 -6.23284052 19.32256013 -6.8671875 16.03515625 C-7.41089566 12.7109055 -6.71414699 11.33710666 -5.3125 8.3125 C-4.7865625 6.45625 -4.7865625 6.45625 -4.25 4.5625 C-3.05290022 0.41255408 -3.05290022 0.41255408 0 0 Z " fill="#A9FD1C" transform="translate(352.3125,206.6875)"/>
<path d="M0 0 C2.53515625 2.046875 2.53515625 2.046875 5.0625 4.75 C5.89910156 5.63171875 6.73570312 6.5134375 7.59765625 7.421875 C8.39042969 8.27265625 9.18320312 9.1234375 10 10 C10.74121094 10.72703125 11.48242188 11.4540625 12.24609375 12.203125 C14.88170027 14.90330094 14.98966137 15.84492055 15.25 19.75 C15.19837622 23.85777825 13.99300575 26.38306363 12 30 C11.18867987 32.23510743 10.46148159 34.48649055 9.74609375 36.75390625 C9 39 9 39 7.96557617 41.29541016 C6.91693054 44.23267851 6.76996364 46.41174535 6.8046875 49.51953125 C6.81113281 50.54111328 6.81757813 51.56269531 6.82421875 52.61523438 C6.84097656 53.67033203 6.85773438 54.72542969 6.875 55.8125 C6.88402344 56.88693359 6.89304687 57.96136719 6.90234375 59.06835938 C6.92584694 61.71246854 6.95870425 64.35611872 7 67 C5.02 67.495 5.02 67.495 3 68 C1.87149533 62.60825545 1.87149533 62.60825545 2.46875 59.78125 C3.14534986 56.23905074 3.10714943 52.77662727 3.0625 49.1875 C3.05798828 48.49462891 3.05347656 47.80175781 3.04882812 47.08789062 C3.03713156 45.39188932 3.01919924 43.69593297 3 42 C2.43152344 42.144375 1.86304688 42.28875 1.27734375 42.4375 C-3.53984124 43.59555449 -8.02168662 44.58568393 -13 44 C-15.4375 42 -15.4375 42 -17 40 C-18.32 40.99 -19.64 41.98 -21 43 C-21.91414432 39.40055675 -22.73579933 35.78616624 -23.51953125 32.15625 C-23.8631618 30.61410314 -24.25860162 29.08313969 -24.6875 27.5625 C-25.22260021 23.1746783 -25.39549769 19.24658628 -24 15 C-21.38454788 12.08208063 -18.24638896 10.1594067 -15 8 C-12.4327253 5.85744431 -9.89321667 3.68582547 -7.359375 1.50390625 C-4.5195781 -0.30622919 -3.30053834 -0.68057612 0 0 Z M-8 10 C-9.04181761 11.02067928 -10.05785093 12.06771556 -11.0625 13.125 C-11.63097656 13.70507812 -12.19945312 14.28515625 -12.78515625 14.8828125 C-14.25298751 17.00929255 -14.25298751 17.00929255 -13.8984375 19.875 C-12.90391745 23.33420016 -11.52532847 25.86342535 -9.5625 28.875 C-8.63630859 30.32519531 -8.63630859 30.32519531 -7.69140625 31.8046875 C-7.13324219 32.52914062 -6.57507813 33.25359375 -6 34 C-5.34 34 -4.68 34 -4 34 C-0.87499055 30.37559437 2.15918461 26.37329786 1.828125 21.4375 C0.55439654 17.48634234 -0.91194586 14.80652214 -4 12 C-4.07654536 16.51617599 -4.10228696 20.59085217 -3 25 C-4.32 25 -5.64 25 -7 25 C-6.835 24.484375 -6.67 23.96875 -6.5 23.4375 C-5.47445891 18.43798719 -5.52225258 14.46582144 -8 10 Z " fill="#ADFB21" transform="translate(310,207)"/>
<path d="M0 0 C3.0625 -0.25 3.0625 -0.25 6 0 C7.6013563 1.6013563 7.15688224 3.3141076 7.18945312 5.53222656 C7.21452942 6.97943085 7.21452942 6.97943085 7.2401123 8.45587158 C7.25368774 9.50684021 7.26726318 10.55780884 7.28125 11.640625 C7.30886414 13.25212433 7.30886414 13.25212433 7.33703613 14.8961792 C7.3959949 18.34739519 7.44868791 21.79866236 7.5 25.25 C7.56770551 29.77614517 7.64146936 34.30213441 7.71875 38.828125 C7.73232544 39.8709967 7.74590088 40.91386841 7.7598877 41.98834229 C7.78496399 43.45445953 7.78496399 43.45445953 7.81054688 44.95019531 C7.82307495 45.80655579 7.83560303 46.66291626 7.84851074 47.54522705 C7.94096457 50.05964721 7.94096457 50.05964721 8.58996582 52.70233154 C9 55 9 55 7.75 56.8125 C6 58 6 58 3 58 C3.33 68.23 3.66 78.46 4 89 C2.02 89.495 2.02 89.495 0 90 C-0.93423645 86.98968256 -1.04449911 86.13349732 0 83 C0.07033827 81.3229597 0.08429902 79.6432169 0.0625 77.96484375 C0.05476563 76.99095703 0.04703125 76.01707031 0.0390625 75.01367188 C0.01972656 73.4909668 0.01972656 73.4909668 0 71.9375 C-0.02544802 69.92583433 -0.04650188 67.91410676 -0.0625 65.90234375 C-0.07410156 65.01023193 -0.08570313 64.11812012 -0.09765625 63.19897461 C0 61 0 61 1 59 C-0.65 58.67 -2.3 58.34 -4 58 C-5.25505249 54.3742928 -4.64572324 51.7308454 -4 48 C-3.73040999 42.60819987 -4.2688525 38.0226319 -5.5625 32.78515625 C-6.71010029 25.47945084 -5.81166303 18.76640303 -4.125 11.625 C-3.95097656 10.83222656 -3.77695312 10.03945312 -3.59765625 9.22265625 C-2.75850034 5.54901814 -2.12988836 3.19483254 0 0 Z " fill="#A9FD1B" transform="translate(372,191)"/>
<path d="M0 0 C0.33 0.99 0.66 1.98 1 3 C0.34 3 -0.32 3 -1 3 C-1 3.99 -1 4.98 -1 6 C0.94999129 5.80528889 0.94999129 5.80528889 3 5 C4.28436734 3.0162233 4.28436734 3.0162233 5 1 C6.32 1 7.64 1 9 1 C9.93983832 4.96820622 10.13421572 8.67665361 10.125 12.75 C10.12886719 14.47476563 10.12886719 14.47476563 10.1328125 16.234375 C10 19 10 19 9 20 C8.91273777 21.78071246 8.89300959 23.5648314 8.90234375 25.34765625 C8.90717773 26.96704102 8.90717773 26.96704102 8.91210938 28.61914062 C8.92048828 29.75544922 8.92886719 30.89175781 8.9375 32.0625 C8.94201172 33.20267578 8.94652344 34.34285156 8.95117188 35.51757812 C8.96300253 38.34510351 8.9794859 41.1725264 9 44 C7.515 44.495 7.515 44.495 6 45 C6.04125 45.9075 6.0825 46.815 6.125 47.75 C6 51 6 51 4 55 C-0.95 55 -5.9 55 -11 55 C-11.33 53.35 -11.66 51.7 -12 50 C-9.36 49.34 -6.72 48.68 -4 48 C-4.33 45.36 -4.66 42.72 -5 40 C-5.66 40 -6.32 40 -7 40 C-7.25 37.1875 -7.25 37.1875 -7 34 C-5.125 32.125 -5.125 32.125 -3 31 C-2.34 31 -1.68 31 -1 31 C-1.25596554 28.26869707 -1.52916587 25.54098536 -1.8125 22.8125 C-1.88275391 22.04357422 -1.95300781 21.27464844 -2.02539062 20.48242188 C-2.51977739 15.8747372 -3.37129581 12.91509134 -6 9 C-6.6875 5.1875 -6.6875 5.1875 -7 2 C-4.69 1.34 -2.38 0.68 0 0 Z " fill="#A9FD1D" transform="translate(211,210)"/>
<path d="M0 0 C-0.00523682 0.74161377 -0.01047363 1.48322754 -0.01586914 2.24731445 C-0.03663614 5.60236771 -0.0496593 8.95740744 -0.0625 12.3125 C-0.07087891 13.47974609 -0.07925781 14.64699219 -0.08789062 15.84960938 C-0.09111328 16.96787109 -0.09433594 18.08613281 -0.09765625 19.23828125 C-0.10289307 20.26993408 -0.10812988 21.30158691 -0.11352539 22.36450195 C-0.11635 25.10946274 -0.11635 25.10946274 1 28 C1.4375 31.375 1.4375 31.375 1 35 C-0.81208243 37.23583094 -2.54665246 38.38079062 -5 40 C-5.66 40 -6.32 40 -7 40 C-7.17521771 55.02844956 -7.17521771 55.02844956 -6 70 C-7.32 70 -8.64 70 -10 70 C-10.02911003 66.10418244 -10.04683587 62.208393 -10.0625 58.3125 C-10.07087891 57.20970703 -10.07925781 56.10691406 -10.08789062 54.97070312 C-10.09111328 53.90400391 -10.09433594 52.83730469 -10.09765625 51.73828125 C-10.10289307 50.75899658 -10.10812988 49.77971191 -10.11352539 48.77075195 C-10.00308543 46.07530428 -9.60534166 43.62454361 -9 41 C-10.32 41 -11.64 41 -13 41 C-14.92953354 34.9919125 -14.30385036 28.16593246 -14.35009766 21.90942383 C-14.36671869 20.25954137 -14.39408914 18.60973269 -14.43212891 16.96020508 C-14.48676446 14.57595686 -14.50874038 12.19338257 -14.5234375 9.80859375 C-14.54610687 9.07104355 -14.56877625 8.33349335 -14.59213257 7.57359314 C-14.58349609 5.48999023 -14.58349609 5.48999023 -14 2 C-8.98956308 -2.03141522 -5.75920048 -2.45334363 0 0 Z " fill="#AFFD19" transform="translate(240,209)"/>
<path d="M0 0 C1 1 1 1 1.08178711 3.28149414 C1.0638208 4.27270264 1.04585449 5.26391113 1.02734375 6.28515625 C1.01509766 7.37376953 1.00285156 8.46238281 0.99023438 9.58398438 C0.9554916 11.8757206 0.916533 14.16739738 0.87304688 16.45898438 C0.79666525 23.61229833 0.79666525 23.61229833 2.140625 30.59765625 C3 34 3 34 2.13574219 35.73608398 C0.03884738 38.33321588 -2.22999657 40.15333105 -5 42 C-5.4181217 45.00852608 -5.4181217 45.00852608 -5.29296875 48.5390625 C-5.28330078 49.84101563 -5.27363281 51.14296875 -5.26367188 52.484375 C-5.23860388 53.86458923 -5.21320902 55.24479756 -5.1875 56.625 C-5.17245517 58.01300663 -5.15876641 59.40102867 -5.14648438 60.7890625 C-5.1110257 64.19309509 -5.06160298 67.59635622 -5 71 C-6.32 71 -7.64 71 -9 71 C-8.67 61.43 -8.34 51.86 -8 42 C-9.32 42 -10.64 42 -12 42 C-12.89549523 33.95431978 -13.01178232 26.25275671 -12.31860352 18.20703125 C-11.9138871 14.48872658 -11.9138871 14.48872658 -13 11 C-13.4556962 4.73417722 -13.4556962 4.73417722 -11.875 2.1875 C-8.04291206 -0.23948903 -4.36815996 -1.77962072 0 0 Z " fill="#ABFA24" transform="translate(181,208)"/>
<path d="M0 0 C1.32 0 2.64 0 4 0 C4.66 0.66 5.32 1.32 6 2 C9.08347826 2.16681109 9.08347826 2.16681109 12 2 C12.50615298 3.26839526 13.00469099 4.53983102 13.5 5.8125 C13.7784375 6.52019531 14.056875 7.22789062 14.34375 7.95703125 C15 10 15 10 15 13 C15.99 13 16.98 13 18 13 C22.04463732 19.99566026 22.04463732 19.99566026 21.875 23.8125 C21 26 21 26 19 29 C18.65519563 30.61456012 18.36820621 32.24204403 18.125 33.875 C17.31500533 38.2097371 16.35307896 40.94278095 13 44 C10.75 44.8125 10.75 44.8125 9 45 C9 45.66 9 46.32 9 47 C6.69 46.67 4.38 46.34 2 46 C2.56871216 26.26568811 2.56871216 26.26568811 10 19 C10.75342517 16.67484501 10.75342517 16.67484501 10 14 C8.2717695 11.3859155 6.39852731 9.02503401 4 7 C3.01 7 2.02 7 1 7 C0.67 6.01 0.34 5.02 0 4 C0.66 4 1.32 4 2 4 C2 3.34 2 2.68 2 2 C1.01 1.67 0.02 1.34 -1 1 C-0.67 0.67 -0.34 0.34 0 0 Z " fill="#A9FD1C" transform="translate(142,196)"/>
<path d="M0 0 C9.24351297 6.38922156 9.24351297 6.38922156 11 11 C11.55863743 16.865693 10.86437814 19.80168412 8 25 C7.18867987 27.23510743 6.46148159 29.48649055 5.74609375 31.75390625 C5 34 5 34 3.96557617 36.29541016 C2.91693054 39.23267851 2.76996364 41.41174535 2.8046875 44.51953125 C2.81113281 45.54111328 2.81757813 46.56269531 2.82421875 47.61523438 C2.84097656 48.67033203 2.85773438 49.72542969 2.875 50.8125 C2.88402344 51.88693359 2.89304687 52.96136719 2.90234375 54.06835938 C2.92584694 56.71246854 2.95870425 59.35611872 3 62 C1.02 62.495 1.02 62.495 -1 63 C-2.12850467 57.60825545 -2.12850467 57.60825545 -1.53125 54.78125 C-0.85465014 51.23905074 -0.89285057 47.77662727 -0.9375 44.1875 C-0.94201172 43.49462891 -0.94652344 42.80175781 -0.95117188 42.08789062 C-0.96286844 40.39188932 -0.98080076 38.69593297 -1 37 C-1.56847656 37.144375 -2.13695312 37.28875 -2.72265625 37.4375 C-7.53370282 38.59407881 -12.02777631 39.59666684 -17 39 C-17.99 37.68 -18.98 36.36 -20 35 C-16.37 35.66 -12.74 36.32 -9 37 C-8.67 35.68 -8.34 34.36 -8 33 C-8.99 32.34 -9.98 31.68 -11 31 C-11 30.01 -11 29.02 -11 28 C-12.65 28 -14.3 28 -16 28 C-16 27.34 -16 26.68 -16 26 C-15.34 26 -14.68 26 -14 26 C-14.33 24.35 -14.66 22.7 -15 21 C-12.27573689 23.35277269 -11.1858237 25.62496331 -10 29 C-9.34 29 -8.68 29 -8 29 C-7.731875 28.29875 -7.46375 27.5975 -7.1875 26.875 C-6 24 -6 24 -4.125 21.3125 C-2.3430877 16.06575823 -4.68169739 12.9015541 -7 8 C-7 11.96 -7 15.92 -7 20 C-8.32 20 -9.64 20 -11 20 C-11.02694851 18.04174127 -11.04637218 16.08337774 -11.0625 14.125 C-11.07410156 13.03445312 -11.08570313 11.94390625 -11.09765625 10.8203125 C-11 8 -11 8 -10 6 C-6.62537285 6.54723683 -4.91765 7.0549 -2 9 C-2.33 9.99 -2.66 10.98 -3 12 C-2.34 12.33 -1.68 12.66 -1 13 C0.18120737 17.29852907 0.62619051 20.87285708 -1.5625 24.8125 C-2.036875 25.534375 -2.51125 26.25625 -3 27 C-2.30859649 29.30287793 -2.30859649 29.30287793 -1 31 C-0.01 31 0.98 31 2 31 C2 31.99 2 32.98 2 34 C1.01 34 0.02 34 -1 34 C-0.34 34.66 0.32 35.32 1 36 C4.87092545 30.54551414 6 24.58744089 6 18 C6.66 18 7.32 18 8 18 C7.67 15.03 7.34 12.06 7 9 C6.01 9 5.02 9 4 9 C3.71125 8.2575 3.4225 7.515 3.125 6.75 C2.17631737 4.43099801 1.13440221 2.23067324 0 0 Z " fill="#B0F432" transform="translate(314,212)"/>
<path d="M0 0 C0.99 0.66 1.98 1.32 3 2 C3.52651266 4.66846187 3.83112419 7.05763708 4 9.75 C4.07605469 10.45382813 4.15210938 11.15765625 4.23046875 11.8828125 C4.50890711 15.93145672 4.20149967 18.29121144 1.625 21.515625 C-1 24 -1 24 -3 24 C-3 33.24 -3 42.48 -3 52 C-4.485 52.495 -4.485 52.495 -6 53 C-6.85481185 43.491862 -7.04377631 34.52245158 -6 25 C-7.7015625 25.4640625 -7.7015625 25.4640625 -9.4375 25.9375 C-13.85342487 27.02969494 -18.43129901 28.10813493 -23 28 C-23.99 27.34 -24.98 26.68 -26 26 C-26.06790973 29.93876418 -26.10630814 33.43656688 -25.375 37.3125 C-25 40 -25 40 -27 43 C-28.65 42.67 -30.3 42.34 -32 42 C-33.16896069 38.49311793 -32.74754734 37.64186884 -31.5625 34.25 C-30.22616879 29.96752462 -29.31795424 26.51855314 -30 22 C-31.21039502 20.07640926 -32.5021103 18.38107259 -34.00390625 16.67578125 C-35 15 -35 15 -34.83984375 12.85546875 C-34.56269531 12.24316406 -34.28554687 11.63085938 -34 11 C-31.11788698 10.03929566 -29.30149956 9.89418117 -26.3125 9.9375 C-25.10013672 9.95103516 -25.10013672 9.95103516 -23.86328125 9.96484375 C-22.94095703 9.98224609 -22.94095703 9.98224609 -22 10 C-20.33333333 13.33333333 -18.66666667 16.66666667 -17 20 C-18.32 19.34 -19.64 18.68 -21 18 C-21 16.68 -21 15.36 -21 14 C-21.99 14 -22.98 14 -24 14 C-24 13.34 -24 12.68 -24 12 C-25.65 12 -27.3 12 -29 12 C-29 12.66 -29 13.32 -29 14 C-30.32 13.67 -31.64 13.34 -33 13 C-32.22520264 15.99152582 -32.22520264 15.99152582 -31 19 C-30.01 19.33 -29.02 19.66 -28 20 C-28 20.99 -28 21.98 -28 23 C-26.02 23.33 -24.04 23.66 -22 24 C-22 24.66 -22 25.32 -22 26 C-19.93643105 25.7159949 -17.8741715 25.42246648 -15.8125 25.125 C-14.66394531 24.96257812 -13.51539063 24.80015625 -12.33203125 24.6328125 C-9.29818586 24.05663084 -6.80634275 23.25716236 -4 22 C-3.2575 21.67 -2.515 21.34 -1.75 21 C0.17334381 20.11556254 0.17334381 20.11556254 1 18 C1.04589339 16.05693343 1.04589339 16.05693343 0.87890625 13.8671875 C0.83056641 13.06152344 0.78222656 12.25585938 0.73242188 11.42578125 C0.64831055 10.16314453 0.64831055 10.16314453 0.5625 8.875 C0.48418945 7.60076172 0.48418945 7.60076172 0.40429688 6.30078125 C0.27448622 4.20020876 0.1378826 2.10005809 0 0 Z " fill="#BBF046" transform="translate(278,223)"/>
<path d="M0 0 C2.5592805 0.34584872 4.52075586 0.68050391 6.6875 2.125 C10.35753201 7.36790287 10.51450394 13.82595272 10 20 C9.67 20.99 9.34 21.98 9 23 C8.70412159 28.13436065 8.90022496 32.97245698 10 38 C9.67 38.66 9.34 39.32 9 40 C8.76725791 42.87910588 8.58027243 45.74146495 8.4375 48.625 C8.39431641 49.42679687 8.35113281 50.22859375 8.30664062 51.0546875 C8.20048543 53.0362511 8.09973145 55.01810271 8 57 C7.01 57.495 7.01 57.495 6 58 C4.93328048 54.79984144 5.05154528 53.11455706 5.4375 49.8125 C5.53933594 48.91144531 5.64117187 48.01039063 5.74609375 47.08203125 C5.82988281 46.39496094 5.91367187 45.70789063 6 45 C5.01 45.495 5.01 45.495 4 46 C3.68758545 48.71446979 3.48663408 51.33909361 3.375 54.0625 C3.31699219 55.20041992 3.31699219 55.20041992 3.2578125 56.36132812 C3.16326438 58.24047195 3.08053244 60.12020336 3 62 C2.01 62 1.02 62 0 62 C0 55.07 0 48.14 0 41 C-1.65 40.67 -3.3 40.34 -5 40 C-4.67 39.01 -4.34 38.02 -4 37 C-3.34 37 -2.68 37 -2 37 C-1.731875 36.2575 -1.46375 35.515 -1.1875 34.75 C-0.04702351 32.10889655 1.28677072 30.28430571 3 28 C3.71727778 26.35448038 4.38325228 24.68577711 5 23 C5.37125 22.2575 5.7425 21.515 6.125 20.75 C7.4875837 16.46759409 8.05755917 11.11511833 6 7 C5.01 6.67 4.02 6.34 3 6 C3 4.68 3 3.36 3 2 C2.01 2 1.02 2 0 2 C0 1.34 0 0.68 0 0 Z " fill="#B0F631" transform="translate(351,207)"/>
<path d="M0 0 C0.02908357 3.41664873 0.04682691 6.8332655 0.0625 10.25 C0.07087891 11.21808594 0.07925781 12.18617188 0.08789062 13.18359375 C0.09111328 14.11816406 0.09433594 15.05273438 0.09765625 16.015625 C0.10289307 16.87446289 0.10812988 17.73330078 0.11352539 18.61816406 C0.00539986 20.88670744 -0.36417577 22.82631715 -1 25 C-1.66 25 -2.32 25 -3 25 C-2.67 22.69 -2.34 20.38 -2 18 C-2.66 18.99 -3.32 19.98 -4 21 C-5.9375 21.5625 -5.9375 21.5625 -8 22 C-11.35143175 23.87596527 -11.35143175 23.87596527 -13 28 C-13.33 19.42 -13.66 10.84 -14 2 C-6.23789676 -2.65726194 -6.23789676 -2.65726194 0 0 Z " fill="#AAFC21" transform="translate(240,209)"/>
<path d="M0 0 C23.78727013 -0.89575494 23.78727013 -0.89575494 31 4 C32.6889905 7.90806417 33.3994651 11.79625567 34 16 C33.34 16 32.68 16 32 16 C31.01 12.37 30.02 8.74 29 5 C26.69 5.33 24.38 5.66 22 6 C21.67 5.01 21.34 4.02 21 3 C19.7934375 3.2784375 19.7934375 3.2784375 18.5625 3.5625 C17.716875 3.706875 16.87125 3.85125 16 4 C15.67 3.67 15.34 3.34 15 3 C12.47403741 2.76346477 9.96892793 2.57826308 7.4375 2.4375 C6.72658203 2.39431641 6.01566406 2.35113281 5.28320312 2.30664062 C3.52238088 2.20028223 1.7612168 2.09961154 0 2 C0 1.34 0 0.68 0 0 Z M6 3 C6.721875 3.350625 7.44375 3.70125 8.1875 4.0625 C11.3600568 5.12001893 12.81380252 4.75462572 16 4 C16.99 4.33 17.98 4.66 19 5 C19 5.66 19 6.32 19 7 C18.34 7 17.68 7 17 7 C17.33 7.66 17.66 8.32 18 9 C18.99 8.67 19.98 8.34 21 8 C21.4125 8.7425 21.825 9.485 22.25 10.25 C23.84472156 13.06403446 23.84472156 13.06403446 26.25 14.875 C28 17 28 17 27.875 20.6875 C27.58625 21.780625 27.2975 22.87375 27 24 C26.34 24.33 25.68 24.66 25 25 C24.98582031 24.39671875 24.97164062 23.7934375 24.95703125 23.171875 C24.68889356 17.77202124 24.68889356 17.77202124 21.5625 13.5 C20.06587802 12.62392859 18.55109728 11.77554864 17 11 C16.94604522 12.62463842 16.90722805 14.24978541 16.875 15.875 C16.84019531 17.23238281 16.84019531 17.23238281 16.8046875 18.6171875 C16.75675164 21.18806994 16.75675164 21.18806994 19 23 C19.125 26.625 19.125 26.625 19 30 C17.34385343 30.38218767 15.67542976 30.71395102 14 31 C13 30 13 30 12.875 27.25 C13 24 13 24 13.5625 21.6875 C14.20889239 17.71680388 13.56078255 13.95998757 13 10 C11.68 9.67 10.36 9.34 9 9 C9 12.3 9 15.6 9 19 C8.67 19 8.34 19 8 19 C4.37129841 8.62642369 4.37129841 8.62642369 6 3 Z " fill="#B2F432" transform="translate(125,193)"/>
<path d="M0 0 C3.0625 -0.25 3.0625 -0.25 6 0 C7.6013563 1.6013563 7.15688224 3.3141076 7.18945312 5.53222656 C7.21452942 6.97943085 7.21452942 6.97943085 7.2401123 8.45587158 C7.25368774 9.50684021 7.26726318 10.55780884 7.28125 11.640625 C7.30886414 13.25212433 7.30886414 13.25212433 7.33703613 14.8961792 C7.3959949 18.34739519 7.44868791 21.79866236 7.5 25.25 C7.56770551 29.77614517 7.64146936 34.30213441 7.71875 38.828125 C7.73232544 39.8709967 7.74590088 40.91386841 7.7598877 41.98834229 C7.78496399 43.45445953 7.78496399 43.45445953 7.81054688 44.95019531 C7.82307495 45.80655579 7.83560303 46.66291626 7.84851074 47.54522705 C7.94096457 50.05964721 7.94096457 50.05964721 8.58996582 52.70233154 C9 55 9 55 7.75 56.8125 C6 58 6 58 3 58 C3.33 68.23 3.66 78.46 4 89 C2.02 89.495 2.02 89.495 0 90 C-0.93423645 86.98968256 -1.04449911 86.13349732 0 83 C0.07033827 81.3229597 0.08429902 79.6432169 0.0625 77.96484375 C0.05476563 76.99095703 0.04703125 76.01707031 0.0390625 75.01367188 C0.01972656 73.4909668 0.01972656 73.4909668 0 71.9375 C-0.02544802 69.92583433 -0.04650188 67.91410676 -0.0625 65.90234375 C-0.07410156 65.01023193 -0.08570313 64.11812012 -0.09765625 63.19897461 C0 61 0 61 1 59 C-0.32 58.67 -1.64 58.34 -3 58 C-1.35 58 0.3 58 2 58 C2 57.01 2 56.02 2 55 C3.32 55.33 4.64 55.66 6 56 C5.83773926 55.33806641 5.67547852 54.67613281 5.50830078 53.99414062 C4.88913607 50.34695715 4.85683552 46.78028952 4.8671875 43.09375 C4.86623077 42.33259888 4.86527405 41.57144775 4.86428833 40.78723145 C4.86360941 39.17683835 4.86544357 37.56644249 4.86962891 35.95605469 C4.87492184 33.53574167 4.86970509 31.11561932 4.86328125 28.6953125 C4.85983187 19.74348231 5.12861791 10.91628327 6 2 C4.35 2.33 2.7 2.66 1 3 C0.34 6.3 -0.32 9.6 -1 13 C-1.66 13 -2.32 13 -3 13 C-2.979375 14.299375 -2.95875 15.59875 -2.9375 16.9375 C-2.91600546 18.29165633 -2.92851801 19.64756083 -3 21 C-3.33 21.33 -3.66 21.66 -4 22 C-4.36760731 24.32817964 -4.70241581 26.6618385 -5 29 C-5.33 29 -5.66 29 -6 29 C-6.20824606 22.92615668 -5.50483644 17.59339568 -4.125 11.6875 C-3.95097656 10.89021484 -3.77695312 10.09292969 -3.59765625 9.27148438 C-2.75954445 5.58068836 -2.13877432 3.20816148 0 0 Z " fill="#B6F146" transform="translate(372,191)"/>
<path d="M0 0 C1.49080078 0.02707031 1.49080078 0.02707031 3.01171875 0.0546875 C3.77097656 0.07789063 4.53023438 0.10109375 5.3125 0.125 C6.26627184 4.12820153 6.4282616 7.84711747 6.41015625 11.95703125 C6.40693359 13.24931641 6.40371094 14.54160156 6.40039062 15.87304688 C6.39203665 17.22786526 6.38357172 18.58268297 6.375 19.9375 C6.36998 21.31184735 6.36541797 22.68619645 6.36132812 24.06054688 C6.34955668 27.41540924 6.33311283 30.77018221 6.3125 34.125 C6.9725 34.455 7.6325 34.785 8.3125 35.125 C7.3225 35.125 6.3325 35.125 5.3125 35.125 C3.22504955 31.99382433 3.03596004 31.05553776 2.8984375 27.45703125 C2.85976563 26.56435547 2.82109375 25.67167969 2.78125 24.75195312 C2.7503125 23.82318359 2.719375 22.89441406 2.6875 21.9375 C2.64882813 20.99712891 2.61015625 20.05675781 2.5703125 19.08789062 C2.47606813 16.7671229 2.39045975 14.44636252 2.3125 12.125 C1.384375 13.115 1.384375 13.115 0.4375 14.125 C-1.6875 16.125 -1.6875 16.125 -3.6875 16.125 C-4.0175 18.435 -4.3475 20.745 -4.6875 23.125 C-6.64470377 20.18919434 -6.98945175 19.22677164 -7.3203125 15.89453125 C-7.44599609 14.69086914 -7.44599609 14.69086914 -7.57421875 13.46289062 C-7.65285156 12.62951172 -7.73148437 11.79613281 -7.8125 10.9375 C-7.89886719 10.09251953 -7.98523438 9.24753906 -8.07421875 8.37695312 C-8.2860739 6.29371077 -8.48776777 4.20943958 -8.6875 2.125 C-5.26655758 -0.15562828 -4.00562778 -0.09425007 0 0 Z " fill="#AFFA24" transform="translate(333.6875,207.875)"/>
<path d="M0 0 C0.99 0 1.98 0 3 0 C3.13277344 0.71027344 3.26554688 1.42054688 3.40234375 2.15234375 C3.57894531 3.07144531 3.75554687 3.99054688 3.9375 4.9375 C4.19853516 6.31228516 4.19853516 6.31228516 4.46484375 7.71484375 C4.77714988 9.95289844 4.77714988 9.95289844 6 11 C10.14276875 11.24733137 10.14276875 11.24733137 14 10 C17.71069698 13.99613521 19.59791618 16.37082652 20 22 C17.36 22.99 14.72 23.98 12 25 C12 26.32 12 27.64 12 29 C12.495 28.814375 12.99 28.62875 13.5 28.4375 C17.15081689 27.79860704 20.33964724 28.45094709 24 29 C24 29.33 24 29.66 24 30 C22.02 30 20.04 30 18 30 C17.97314062 32.14576637 17.95366912 34.29162645 17.9375 36.4375 C17.92589844 37.63246094 17.91429687 38.82742188 17.90234375 40.05859375 C17.66098208 42.88873341 17.66098208 42.88873341 19 44 C19.04080783 45.99958364 19.04254356 48.00045254 19 50 C17.0625 50.5625 17.0625 50.5625 15 51 C14 50 14 50 13.97827148 48.05053711 C14.02540283 47.2178833 14.07253418 46.38522949 14.12109375 45.52734375 C14.16943359 44.62822266 14.21777344 43.72910156 14.26757812 42.80273438 C14.32365234 41.85720703 14.37972656 40.91167969 14.4375 39.9375 C14.48970703 38.98810547 14.54191406 38.03871094 14.59570312 37.06054688 C14.72581358 34.70673048 14.86079112 32.35329301 15 30 C14.11054688 29.87753906 13.22109375 29.75507813 12.3046875 29.62890625 C9.2589195 29.04927428 6.91451377 28.24772617 4.125 26.9375 C3.34382812 26.57527344 2.56265625 26.21304687 1.7578125 25.83984375 C1.17773438 25.56269531 0.59765625 25.28554688 0 25 C0.33 23.68 0.66 22.36 1 21 C6.28 21 11.56 21 17 21 C16.505 18.525 16.505 18.525 16 16 C11.67435795 14.41744803 7.571279 13.54855348 3 13 C2.49242138 11.58603098 1.99425075 10.16868271 1.5 8.75 C1.08234375 7.56664062 1.08234375 7.56664062 0.65625 6.359375 C0 4 0 4 0 0 Z " fill="#B6F533" transform="translate(188,236)"/>
<path d="M0 0 C1.32 0.66 2.64 1.32 4 2 C4 2.66 4 3.32 4 4 C4.99 4 5.98 4 7 4 C8.61949011 6.57213134 9.04408751 7.67669159 8.625 10.75 C8.41875 11.4925 8.2125 12.235 8 13 C7.34 13 6.68 13 6 13 C6.18949219 13.72058594 6.37898438 14.44117188 6.57421875 15.18359375 C7.27245616 19.80221 5.77712437 23.75066633 4 28 C1.8125 30.625 1.8125 30.625 0 32 C-0.33 31.01 -0.66 30.02 -1 29 C-0.01 29 0.98 29 2 29 C1.17280855 26.82890503 1.17280855 26.82890503 -1 26.0625 C-3 25 -3 25 -4 22 C-3.505 21.29875 -3.01 20.5975 -2.5 19.875 C0.15369989 14.78874188 -1.59140367 9.35509467 -3 4 C-2.01 3.67 -1.02 3.34 0 3 C0 2.01 0 1.02 0 0 Z " fill="#A7FD1A" transform="translate(314,217)"/>
<path d="M0 0 C-0.01160156 0.96421875 -0.02320313 1.9284375 -0.03515625 2.921875 C-0.04417969 4.18515625 -0.05320312 5.4484375 -0.0625 6.75 C-0.07410156 8.00296875 -0.08570313 9.2559375 -0.09765625 10.546875 C-0.13391512 13.83553093 -0.13391512 13.83553093 0.59375 16.28125 C1 18 1 18 -0.4375 20.75 C-1.2109375 21.86375 -1.2109375 21.86375 -2 23 C-4.475 22.01 -4.475 22.01 -7 21 C-7 20.34 -7 19.68 -7 19 C-7.99 19 -8.98 19 -10 19 C-11.99785435 14.8794254 -12.17835515 11.54805635 -12 7 C-10.68 6.67 -9.36 6.34 -8 6 C-7.938125 5.21625 -7.87625 4.4325 -7.8125 3.625 C-7 1 -7 1 -4.5625 -0.375 C-2 -1 -2 -1 0 0 Z " fill="#A8FD1C" transform="translate(258,198)"/>
<path d="M0 0 C0.7425 0.2475 1.485 0.495 2.25 0.75 C2.394375 1.554375 2.53875 2.35875 2.6875 3.1875 C2.99135249 5.67103706 2.99135249 5.67103706 4.25 6.75 C4.91 7.08 5.57 7.41 6.25 7.75 C6.58 8.74 6.91 9.73 7.25 10.75 C8.24 11.41 9.23 12.07 10.25 12.75 C9.59 14.07 8.93 15.39 8.25 16.75 C-0.5095092 17.19539877 -0.5095092 17.19539877 -4.75 13.75 C-4.75 13.09 -4.75 12.43 -4.75 11.75 C-5.41 11.75 -6.07 11.75 -6.75 11.75 C-7.72983761 8.70161632 -7.96704816 6.74581086 -6.75 3.75 C-3.66034483 -0.33275862 -3.66034483 -0.33275862 0 0 Z " fill="#A8FD1C" transform="translate(296.75,232.25)"/>
<path d="M0 0 C0.33 0 0.66 0 1 0 C1.33 8.25 1.66 16.5 2 25 C3.32 25 4.64 25 6 25 C5.34 26.32 4.68 27.64 4 29 C0.14674981 28.44953569 -1.67177879 27.10429494 -4 24 C-4.66082017 21.71604029 -5.12022376 19.46640113 -5.5078125 17.12109375 C-5.93452695 14.71658566 -5.93452695 14.71658566 -8 12 C-7.74940605 7.40577752 -7.14608258 4.41965498 -4 1 C-3.67 1.99 -3.34 2.98 -3 4 C-2.2884375 3.01 -2.2884375 3.01 -1.5625 2 C-1.046875 1.34 -0.53125 0.68 0 0 Z M-4 15 C-4 15.66 -4 16.32 -4 17 C-3.34 17 -2.68 17 -2 17 C-2 16.34 -2 15.68 -2 15 C-2.66 15 -3.32 15 -4 15 Z " fill="#A8FD1B" transform="translate(336,219)"/>
<path d="M0 0 C0.33 1.32 0.66 2.64 1 4 C0.01 4.495 0.01 4.495 -1 5 C-1.47001033 8.27555608 -1.47001033 8.27555608 -1.625 12.0625 C-1.69976562 13.35285156 -1.77453125 14.64320313 -1.8515625 15.97265625 C-1.90054688 16.97167969 -1.94953125 17.97070312 -2 19 C0.31 19.33 2.62 19.66 5 20 C4.67 19.01 4.34 18.02 4 17 C5.32 17 6.64 17 8 17 C6.9024777 19.99324263 6.32317108 20.84610901 3.375 22.25 C2.59125 22.4975 1.8075 22.745 1 23 C1.33 26.3 1.66 29.6 2 33 C0.02 33.495 0.02 33.495 -2 34 C-2.125 26.375 -2.125 26.375 -1 23 C-6.13476247 24.12385353 -6.13476247 24.12385353 -11 26 C-14.5 26.1875 -14.5 26.1875 -18 26 C-18.66 25.34 -19.32 24.68 -20 24 C-16.7 24 -13.4 24 -10 24 C-10 23.34 -10 22.68 -10 22 C-11.65 21.67 -13.3 21.34 -15 21 C-14.67 20.34 -14.34 19.68 -14 19 C-13.0925 19.185625 -12.185 19.37125 -11.25 19.5625 C-8.24339146 19.96723576 -6.8119538 19.82524731 -4 19 C-3.87882812 17.87980469 -3.75765625 16.75960937 -3.6328125 15.60546875 C-3.46396733 14.13276364 -3.29467303 12.66010996 -3.125 11.1875 C-3.04636719 10.44951172 -2.96773437 9.71152344 -2.88671875 8.95117188 C-2.45539714 5.28493819 -2.0803217 3.12048255 0 0 Z " fill="#B5F13C" transform="translate(146,223)"/>
<path d="M0 0 C0.99 0.66 1.98 1.32 3 2 C3.52651266 4.66846187 3.83112419 7.05763708 4 9.75 C4.07605469 10.45382813 4.15210938 11.15765625 4.23046875 11.8828125 C4.50890711 15.93145672 4.20149967 18.29121144 1.625 21.515625 C-1 24 -1 24 -3 24 C-3 33.24 -3 42.48 -3 52 C-4.485 52.495 -4.485 52.495 -6 53 C-6.85481185 43.491862 -7.04377631 34.52245158 -6 25 C-7.175625 25.33 -8.35125 25.66 -9.5625 26 C-13.5011676 26.9969533 -16.95139129 27.16869203 -21 27 C-21 26.67 -21 26.34 -21 26 C-20.19175781 25.87882812 -19.38351562 25.75765625 -18.55078125 25.6328125 C-17.48214844 25.46523437 -16.41351563 25.29765625 -15.3125 25.125 C-14.25675781 24.96257812 -13.20101563 24.80015625 -12.11328125 24.6328125 C-7.80126415 23.75634227 -3.82219557 22.18411176 0 20 C1.17829199 17.64341603 1.04414372 16.47426764 0.87890625 13.8671875 C0.83056641 13.06152344 0.78222656 12.25585938 0.73242188 11.42578125 C0.67634766 10.58402344 0.62027344 9.74226562 0.5625 8.875 C0.48418945 7.60076172 0.48418945 7.60076172 0.40429688 6.30078125 C0.27448622 4.20020876 0.1378826 2.10005809 0 0 Z " fill="#B8E946" transform="translate(278,223)"/>
<path d="M0 0 C4.64034022 1.4653706 4.64034022 1.4653706 6.15625 3.71875 C7.19293981 6.52165207 7.19597168 8.7691894 7.125 11.75 C7.10695312 12.73484375 7.08890625 13.7196875 7.0703125 14.734375 C7.03550781 15.85585937 7.03550781 15.85585937 7 17 C5.02 17.66 3.04 18.32 1 19 C1 18.01 1 17.02 1 16 C1.66 16 2.32 16 3 16 C3 15.34 3 14.68 3 14 C1.35 14.66 -0.3 15.32 -2 16 C-2.19466332 14.20909747 -2.38051213 12.41723495 -2.5625 10.625 C-2.66691406 9.62726563 -2.77132812 8.62953125 -2.87890625 7.6015625 C-3 5 -3 5 -2 3 C-1.34 3 -0.68 3 0 3 C0 2.01 0 1.02 0 0 Z " fill="#A9FD1A" transform="translate(231,208)"/>
<path d="M0 0 C4.45294404 1.3994967 7.08094162 3.35117703 10 7 C10.8125 10.8125 10.8125 10.8125 11 14 C10.01 14.33 9.02 14.66 8 15 C8 15.66 8 16.32 8 17 C7.01 17 6.02 17 5 17 C5.350625 17.5775 5.70125 18.155 6.0625 18.75 C7.14917407 21.35801776 6.93065133 22.39417629 6 25 C4.68 25 3.36 25 2 25 C2.04125 23.88625 2.0825 22.7725 2.125 21.625 C2.41121859 17.95633975 2.41121859 17.95633975 0 16 C-0.144375 15.360625 -0.28875 14.72125 -0.4375 14.0625 C-1.10356162 11.62027406 -2.11604329 10.63822323 -4 9 C-1.0280615 10.12451727 1.33440687 11.22293791 4 13 C4.66 12.67 5.32 12.34 6 12 C6.66 12.33 7.32 12.66 8 13 C8 11.35 8 9.7 8 8 C7.4225 7.71125 6.845 7.4225 6.25 7.125 C4.16666667 6.08333333 2.08333333 5.04166667 0 4 C0 2.68 0 1.36 0 0 Z " fill="#B7F33B" transform="translate(268,191)"/>
<path d="M0 0 C2.625 0.9375 2.625 0.9375 5 2 C5.83859288 5.88802156 6.3306491 8.22297462 4.75 11.9375 C4.1725 12.618125 3.595 13.29875 3 14 C2.01 14 1.02 14 0 14 C-0.33 13.34 -0.66 12.68 -1 12 C-2.97888961 11.27306096 -4.97954558 10.60183749 -7 10 C-7.3125 7.75 -7.3125 7.75 -7 5 C-4.77639103 2.89342308 -2.73477132 1.36738566 0 0 Z " fill="#B8F13C" transform="translate(174,189)"/>
<path d="M0 0 C2.41188821 1.29208297 2.95370407 2.33144059 3.75 4.9375 C3.41052758 8.33222417 2.39956143 10.96828942 0.75 13.9375 C-0.24 13.9375 -1.23 13.9375 -2.25 13.9375 C-2.58 13.2775 -2.91 12.6175 -3.25 11.9375 C-5.22888961 11.21056096 -7.22954558 10.53933749 -9.25 9.9375 C-9.125 6.625 -9.125 6.625 -8.25 2.9375 C-5.39321341 0.90600732 -3.53128824 -0.09809134 0 0 Z " fill="#BAF23A" transform="translate(234.25,189.0625)"/>
<path d="M0 0 C0.33 0 0.66 0 1 0 C1 8.91 1 17.82 1 27 C1.66 26.67 2.32 26.34 3 26 C3 26.66 3 27.32 3 28 C3.66 28 4.32 28 5 28 C5.33 37.9 5.66 47.8 6 58 C4.68 58 3.36 58 2 58 C2.33 48.43 2.66 38.86 3 29 C1.68 29 0.36 29 -1 29 C-2.26991104 18.97799937 -1.53749569 9.89842269 0 0 Z " fill="#C7F44C" transform="translate(170,221)"/>
<path d="M0 0 C0.33 1.32 0.66 2.64 1 4 C1.556875 4.061875 2.11375 4.12375 2.6875 4.1875 C5.94987173 5.33373872 7.68667874 7.49390197 10 10 C9.67 10.99 9.34 11.98 9 13 C6.8125 13.75 6.8125 13.75 4 14 C2.2925002 12.71937515 0.62626404 11.38232443 -1 10 C-3.68507329 9.21053391 -3.68507329 9.21053391 -6 9 C-5.67 6.69 -5.34 4.38 -5 2 C-3.35 1.34 -1.7 0.68 0 0 Z " fill="#ADFB20" transform="translate(267,191)"/>
<path d="M0 0 C3.46063486 2.92461261 3.69490275 5.62703934 4.375 9.94140625 C4.87623292 12.37611315 4.87623292 12.37611315 8 14 C10.28648848 14.24107326 10.28648848 14.24107326 12.6875 14.125 C13.49574219 14.10695312 14.30398438 14.08890625 15.13671875 14.0703125 C15.75160156 14.04710937 16.36648438 14.02390625 17 14 C14.74259377 16.33524782 12.7194239 18.18705073 10 20 C9.7497843 23.08365871 9.7497843 23.08365871 10 26 C8.68 26 7.36 26 6 26 C6.103125 25.05125 6.20625 24.1025 6.3125 23.125 C6.3414589 19.53409636 5.26630679 17.25843777 3.5625 14.125 C0.93585734 9.28722877 0.26484351 5.47343258 0 0 Z M3 1 C3.66 1 4.32 1 5 1 C5 1.66 5 2.32 5 3 C4.34 3 3.68 3 3 3 C3 2.34 3 1.68 3 1 Z " fill="#B6F035" transform="translate(329,233)"/>
<path d="M0 0 C3.37462715 0.54723683 5.08235 1.0549 8 3 C7.67 3.99 7.34 4.98 7 6 C7.66 6.33 8.32 6.66 9 7 C9.91589841 9.99031731 10.23558014 12.88267212 10 16 C7.75 18.375 7.75 18.375 5 20 C3.9826127 20.98230498 2.97403883 21.97469597 2 23 C3.08980901 20.14973028 4.117095 17.83216384 5.875 15.3125 C7.6569123 10.06575823 5.31830261 6.9015541 3 2 C3 5.96 3 9.92 3 14 C1.68 14 0.36 14 -1 14 C-1.02694851 12.04174127 -1.04637218 10.08337774 -1.0625 8.125 C-1.07410156 7.03445312 -1.08570313 5.94390625 -1.09765625 4.8203125 C-1 2 -1 2 0 0 Z " fill="#B9F435" transform="translate(304,218)"/>
<path d="M0 0 C5.28 0.66 10.56 1.32 16 2 C16 2.33 16 2.66 16 3 C14.02 3 12.04 3 10 3 C9.97314062 5.14576637 9.95366912 7.29162645 9.9375 9.4375 C9.92589844 10.63246094 9.91429687 11.82742188 9.90234375 13.05859375 C9.66098208 15.88873341 9.66098208 15.88873341 11 17 C11.04080783 18.99958364 11.04254356 21.00045254 11 23 C9.0625 23.5625 9.0625 23.5625 7 24 C6 23 6 23 5.97827148 21.05053711 C6.02540283 20.2178833 6.07253418 19.38522949 6.12109375 18.52734375 C6.16943359 17.62822266 6.21777344 16.72910156 6.26757812 15.80273438 C6.32365234 14.85720703 6.37972656 13.91167969 6.4375 12.9375 C6.48970703 11.98810547 6.54191406 11.03871094 6.59570312 10.06054688 C6.72581358 7.70673048 6.86079112 5.35329301 7 3 C6.030625 2.87625 5.06125 2.7525 4.0625 2.625 C3.051875 2.41875 2.04125 2.2125 1 2 C0.67 1.34 0.34 0.68 0 0 Z " fill="#C1ED5F" transform="translate(196,263)"/>
<path d="M0 0 C2.475 0.495 2.475 0.495 5 1 C5.92930784 3.78792353 6.01669507 6.22118075 5.9375 9.125 C5.55086978 13.01461069 5.55086978 13.01461069 8 15 C8.125 18.625 8.125 18.625 8 22 C6.34385343 22.38218767 4.67542976 22.71395102 3 23 C2 22 2 22 1.875 19.25 C2 16 2 16 2.5625 13.6875 C3.20179771 9.76038547 2.87678794 5.88073968 2 2 C1.34 1.34 0.68 0.68 0 0 Z " fill="#C0EC4A" transform="translate(136,201)"/>
<path d="M0 0 C0.66 0 1.32 0 2 0 C2 2.97 2 5.94 2 9 C2.66 9 3.32 9 4 9 C4 9.66 4 10.32 4 11 C5.32 11.33 6.64 11.66 8 12 C8 13.32 8 14.64 8 16 C7.38125 16.5775 6.7625 17.155 6.125 17.75 C3.12338512 20.92818046 2.85075941 23.74620296 2 28 C-0.38760208 24.34837329 0.19747703 22.17311946 1 18 C1.20489285 14.14362378 1.2349494 10.70484821 0 7 C-0.03954234 4.66700175 -0.04401732 2.33291811 0 0 Z " fill="#B2F631" transform="translate(367,221)"/>
<path d="M0 0 C0.99 0.33 1.98 0.66 3 1 C3.33 8.59 3.66 16.18 4 24 C2.68 24.33 1.36 24.66 0 25 C-1.12761021 19.612529 -1.12761021 19.612529 -0.53125 16.75 C0.12527571 13.35151396 0.09482562 10.14634171 0.0625 6.6875 C0.04896484 4.80611328 0.04896484 4.80611328 0.03515625 2.88671875 C0.02355469 1.93410156 0.01195312 0.98148438 0 0 Z " fill="#B4EA42" transform="translate(313,250)"/>
<path d="M0 0 C0.92538169 3.70152678 1.08174162 4.63458162 0 8 C0.99 8 1.98 8 3 8 C3.86419223 10.59257669 4.17580932 12.34037707 4.31640625 15.01171875 C4.35830078 15.76904297 4.40019531 16.52636719 4.44335938 17.30664062 C4.48267578 18.09232422 4.52199219 18.87800781 4.5625 19.6875 C4.60568359 20.48478516 4.64886719 21.28207031 4.69335938 22.10351562 C4.79927368 24.06881447 4.90012551 26.03438496 5 28 C4.01 28.33 3.02 28.66 2 29 C0 27 0 27 -0.04345703 25.12060547 C0.05080566 24.37697754 0.14506836 23.63334961 0.2421875 22.8671875 C0.33886719 22.06152344 0.43554688 21.25585938 0.53515625 20.42578125 C0.64730469 19.58402344 0.75945312 18.74226563 0.875 17.875 C0.97941406 17.02550781 1.08382812 16.17601562 1.19140625 15.30078125 C1.45114151 13.1992869 1.72431316 11.09946128 2 9 C1.01 9 0.02 9 -1 9 C-0.67 6.03 -0.34 3.06 0 0 Z " fill="#C0F34C" transform="translate(122,237)"/>
<path d="M0 0 C0.66 0.33 1.32 0.66 2 1 C1.01 2.32 0.02 3.64 -1 5 C-0.01 5.33 0.98 5.66 2 6 C2 5.34 2 4.68 2 4 C2.66 4.33 3.32 4.66 4 5 C3.01 6.485 3.01 6.485 2 8 C1.75849227 10.51584891 1.75849227 10.51584891 1.875 13.1875 C1.90207031 14.53908203 1.90207031 14.53908203 1.9296875 15.91796875 C1.95289063 16.60503906 1.97609375 17.29210937 2 18 C-0.18975773 14.71536341 -0.99806563 11.79303725 -2 8 C-4.0343552 7.80732755 -4.0343552 7.80732755 -5.5 9.0625 C-8.43180404 12.84941356 -9.13666045 16.74727918 -8.625 21.4375 C-8.41875 22.283125 -8.2125 23.12875 -8 24 C-10.2477975 21.94766315 -11.0022242 20.99332739 -12 18 C-10.10492686 10.28434508 -5.46395216 5.58995524 0 0 Z " fill="#B3EE45" transform="translate(195,213)"/>
<path d="M0 0 C0.66 0 1.32 0 2 0 C1.98839844 1.17175781 1.97679687 2.34351563 1.96484375 3.55078125 C1.90665739 12.09144781 1.95241706 20.50709548 3 29 C1.68 29 0.36 29 -1 29 C-1.02911003 25.10418244 -1.04683587 21.208393 -1.0625 17.3125 C-1.07087891 16.20970703 -1.07925781 15.10691406 -1.08789062 13.97070312 C-1.09111328 12.90400391 -1.09433594 11.83730469 -1.09765625 10.73828125 C-1.10289307 9.75899658 -1.10812988 8.77971191 -1.11352539 7.77075195 C-1.00308543 5.07530428 -0.60534166 2.62454361 0 0 Z " fill="#CADD68" transform="translate(231,250)"/>
<path d="M0 0 C4.62 0 9.24 0 14 0 C14 0.99 14 1.98 14 3 C11.50935112 3.68707555 9.62113708 4 7 4 C6.67 3.34 6.34 2.68 6 2 C5.855625 2.763125 5.71125 3.52625 5.5625 4.3125 C5 7 5 7 4 10 C2 9 2 9 1 6 C0.34 5.67 -0.32 5.34 -1 5 C-0.67 3.35 -0.34 1.7 0 0 Z " fill="#A4FD19" transform="translate(126,195)"/>
<path d="M0 0 C0.33 0 0.66 0 1 0 C1.33 8.58 1.66 17.16 2 26 C0.68 26.33 -0.64 26.66 -2 27 C-2.93423645 23.98968256 -3.04449911 23.13349732 -2 20 C-1.78816292 18.44821071 -1.61380063 16.89111328 -1.46484375 15.33203125 C-1.37783203 14.43935547 -1.29082031 13.54667969 -1.20117188 12.62695312 C-1.11416016 11.69818359 -1.02714844 10.76941406 -0.9375 9.8125 C-0.84662109 8.87212891 -0.75574219 7.93175781 -0.66210938 6.96289062 C-0.43828717 4.6422078 -0.21770754 2.32126311 0 0 Z " fill="#CFF55E" transform="translate(374,254)"/>
<path d="M0 0 C1.40187289 2.80374579 0.90114275 4.89525985 0.625 8 C0.53476562 9.0725 0.44453125 10.145 0.3515625 11.25 C0 14 0 14 -1 16 C-1.2322646 18.71262116 -1.41936235 21.40773126 -1.5625 24.125 C-1.60568359 24.87910156 -1.64886719 25.63320312 -1.69335938 26.41015625 C-1.7994832 28.27321888 -1.90025001 30.13658524 -2 32 C-3.65 32.66 -5.3 33.32 -7 34 C-6.34 33.01 -5.68 32.02 -5 31 C-4.34 31 -3.68 31 -3 31 C-2.9727384 28.95840905 -2.95348655 26.91671037 -2.9375 24.875 C-2.92589844 23.73804688 -2.91429687 22.60109375 -2.90234375 21.4296875 C-2.92034052 18.01006013 -2.92034052 18.01006013 -3.5546875 14.72265625 C-4.09839566 11.3984055 -3.40164699 10.02460666 -2 7 C-1.31320058 4.67251306 -0.64238957 2.34013344 0 0 Z " fill="#B7F03C" transform="translate(349,208)"/>
<path d="M0 0 C0.02908357 3.41664873 0.04682691 6.8332655 0.0625 10.25 C0.07087891 11.21808594 0.07925781 12.18617188 0.08789062 13.18359375 C0.09111328 14.11816406 0.09433594 15.05273438 0.09765625 16.015625 C0.10289307 16.87446289 0.10812988 17.73330078 0.11352539 18.61816406 C0.00539986 20.88670744 -0.36417577 22.82631715 -1 25 C-1.66 25 -2.32 25 -3 25 C-2.85691406 23.89205078 -2.85691406 23.89205078 -2.7109375 22.76171875 C-1.94724931 15.77308384 -1.46151179 8.69655487 -4 2 C-5.97567912 0.18716044 -5.97567912 0.18716044 -8 -1 C-4.37673261 -2.2077558 -3.35853631 -1.54311128 0 0 Z " fill="#B8F62D" transform="translate(240,209)"/>
<path d="M0 0 C2.97 0 5.94 0 9 0 C9.92088257 3.83546041 10.05335412 7.24101261 9.87890625 11.17578125 C9.83056641 12.33271484 9.78222656 13.48964844 9.73242188 14.68164062 C9.67634766 15.87982422 9.62027344 17.07800781 9.5625 18.3125 C9.51029297 19.53001953 9.45808594 20.74753906 9.40429688 22.00195312 C9.27490121 25.00157979 9.13994552 28.00085006 9 31 C8.67 31 8.34 31 8 31 C7.67 22.09 7.34 13.18 7 4 C6.01 4 5.02 4 4 4 C4 3.01 4 2.02 4 1 C2.68 0.67 1.36 0.34 0 0 Z " fill="#BAF34A" transform="translate(330,208)"/>
<path d="M0 0 C1.3921875 0.3403125 1.3921875 0.3403125 2.8125 0.6875 C3.1425 1.6775 3.4725 2.6675 3.8125 3.6875 C3.4825 4.3475 3.1525 5.0075 2.8125 5.6875 C0.16389573 6.28105614 -2.47947322 6.42959269 -5.1875 6.6875 C-5.875 4.875 -5.875 4.875 -6.1875 2.6875 C-4.40354601 -0.35571562 -3.53300578 -0.34637312 0 0 Z " fill="#A9FC1E" transform="translate(174.1875,192.3125)"/>
<path d="M0 0 C2 4 2 4 2 6 C3.32 6 4.64 6 6 6 C7.75 8 7.75 8 9 10 C6 12 6 12 0 12 C0 8.04 0 4.08 0 0 Z " fill="#AEF72A" transform="translate(227,238)"/>
<path d="M0 0 C0.33 0 0.66 0 1 0 C1.33970765 2.49927769 1.67188032 4.99919595 2 7.5 C2.09539062 8.19609375 2.19078125 8.8921875 2.2890625 9.609375 C2.9161622 14.44700129 3.08789528 19.12181196 3 24 C2.01 24.33 1.02 24.66 0 25 C-0.73598077 16.50791416 -1.29526567 8.46904477 0 0 Z " fill="#BEE44F" transform="translate(272,251)"/>
<path d="M0 0 C1.98 0.495 1.98 0.495 4 1 C3.67 1.33 3.34 1.66 3 2 C2.76321284 4.69235776 2.57801975 7.36498156 2.4375 10.0625 C2.39431641 10.82111328 2.35113281 11.57972656 2.30664062 12.36132812 C2.20026367 14.24065438 2.09960066 16.12030244 2 18 C1.01 18 0.02 18 -1 18 C-1.09706112 11.88514973 -0.77040851 6.06696699 0 0 Z " fill="#C8E04F" transform="translate(352,251)"/>
<path d="M0 0 C0 0.66 0 1.32 0 2 C-0.66 2 -1.32 2 -2 2 C-1.98839844 3.09699219 -1.97679687 4.19398438 -1.96484375 5.32421875 C-1.95546036 6.77864412 -1.94636075 8.23307135 -1.9375 9.6875 C-1.92912109 10.40873047 -1.92074219 11.12996094 -1.91210938 11.87304688 C-1.89456368 15.71555382 -2.06475779 19.26639526 -3 23 C-3.33 23 -3.66 23 -4 23 C-4.25417629 19.5430244 -4.47407622 16.08471174 -4.6875 12.625 C-4.76033203 11.64015625 -4.83316406 10.6553125 -4.90820312 9.640625 C-4.96298828 8.69960937 -5.01777344 7.75859375 -5.07421875 6.7890625 C-5.13182373 5.91975098 -5.18942871 5.05043945 -5.2487793 4.15478516 C-5.16668213 3.44370605 -5.08458496 2.73262695 -5 2 C-2 0 -2 0 0 0 Z " fill="#B9F337" transform="translate(231,209)"/>
<path d="M0 0 C0.66 0 1.32 0 2 0 C2 0.66 2 1.32 2 2 C2.66 2 3.32 2 4 2 C4 1.34 4 0.68 4 0 C5.65 0.33 7.3 0.66 9 1 C10.125 4.75 10.125 4.75 9 7 C3.25 6.125 3.25 6.125 1 5 C0.375 2.4375 0.375 2.4375 0 0 Z " fill="#AAFC1C" transform="translate(226,192)"/>
<path d="M0 0 C1.27351308 2.54702616 0.80191925 3.4282945 0.0625 6.125 C-0.13214844 6.84945312 -0.32679687 7.57390625 -0.52734375 8.3203125 C-0.68332031 8.87460938 -0.83929688 9.42890625 -1 10 C0.32 9.34 1.64 8.68 3 8 C3 9.32 3 10.64 3 12 C1.35 12 -0.3 12 -2 12 C-2 15.96 -2 19.92 -2 24 C-2.33 24 -2.66 24 -3 24 C-3.08164159 21.3118751 -3.14079668 18.626277 -3.1875 15.9375 C-3.21263672 15.18533203 -3.23777344 14.43316406 -3.26367188 13.65820312 C-3.33282151 8.33368144 -2.40669334 4.75653566 0 0 Z " fill="#B0EE40" transform="translate(123,194)"/>
<path d="M0 0 C3.2533887 3.56823277 4.89798919 6.10348117 5 11 C4.02616054 12.68208635 3.02304948 14.34738161 2 16 C1.45474935 18.67623025 1.2313162 21.27046886 1 24 C0.67 24 0.34 24 0 24 C0 20.7 0 17.4 0 14 C0.66 14 1.32 14 2 14 C1.814375 13.443125 1.62875 12.88625 1.4375 12.3125 C0.92448835 9.600867 1.3359276 7.65628961 2 5 C1.34 5 0.68 5 0 5 C0 3.35 0 1.7 0 0 Z " fill="#B2EE3C" transform="translate(159,209)"/>
<path d="M0 0 C0.66 0 1.32 0 2 0 C2.82351864 6.38226945 3.12086218 12.56744599 3 19 C2.01 19.33 1.02 19.66 0 20 C0 19.01 0 18.02 0 17 C0.66 17 1.32 17 2 17 C1.7834375 16.03900391 1.7834375 16.03900391 1.5625 15.05859375 C0.45964509 9.91959623 -0.22839311 5.25304157 0 0 Z " fill="#B5F241" transform="translate(217,235)"/>
<path d="M0 0 C-0.66 0.37125 -1.32 0.7425 -2 1.125 C-4.35303045 2.90894778 -4.35303045 2.90894778 -4.25 6.1875 C-4.1675 7.115625 -4.085 8.04375 -4 9 C-5.32 9 -6.64 9 -8 9 C-8 6.36 -8 3.72 -8 1 C-4.93251126 -0.86240388 -3.40254489 -1.2151946 0 0 Z " fill="#BAE94A" transform="translate(343,250)"/>
<path d="M0 0 C3.84788585 1.5676572 6.37632897 3.79329096 9 7 C9.3125 10.3125 9.3125 10.3125 9 13 C8.773125 12.360625 8.54625 11.72125 8.3125 11.0625 C7.14749104 8.72806339 7.14749104 8.72806339 4.375 8.25 C3.59125 8.1675 2.8075 8.085 2 8 C2.04125 7.236875 2.0825 6.47375 2.125 5.6875 C2.22080824 2.77281584 2.22080824 2.77281584 0 0 Z " fill="#B9EF47" transform="translate(200,217)"/>
<path d="M0 0 C0.33 0.66 0.66 1.32 1 2 C1.99 1.67 2.98 1.34 4 1 C4 3.31 4 5.62 4 8 C2.02 8 0.04 8 -2 8 C-1.125 1.125 -1.125 1.125 0 0 Z " fill="#AAFC1E" transform="translate(355,242)"/>
<path d="M0 0 C1.65 0 3.3 0 5 0 C6.34832518 3.74534773 7.0992477 6.34248402 6.5 10.3125 C5 13 5 13 1.875 14.375 C0.92625 14.58125 -0.0225 14.7875 -1 15 C0.2684375 13.6696875 0.2684375 13.6696875 1.5625 12.3125 C3.73305465 9.73109106 3.73305465 9.73109106 4 6.375 C2.95690067 3.8976391 1.73939284 2.04189594 0 0 Z " fill="#B4F13E" transform="translate(265,228)"/>
<path d="M0 0 C2.3129482 2.3129482 2.49580975 3.47904875 3.125 6.625 C3.29257812 7.44226563 3.46015625 8.25953125 3.6328125 9.1015625 C3.81457031 10.04128906 3.81457031 10.04128906 4 11 C4.66 11 5.32 11 6 11 C5.67 12.65 5.34 14.3 5 16 C4.01 16 3.02 16 2 16 C2.04125 15.13375 2.0825 14.2675 2.125 13.375 C1.99477916 9.85903742 1.14835452 7.30151924 0 4 C0 2.68 0 1.36 0 0 Z " fill="#B5EC49" transform="translate(286,233)"/>
<path d="M0 0 C0.99 0.33 1.98 0.66 3 1 C3 2.98 3 4.96 3 7 C1.0625 7.5625 1.0625 7.5625 -1 8 C-2 7 -2 7 -2.0625 3.9375 C-2.041875 2.968125 -2.02125 1.99875 -2 1 C-1.34 0.67 -0.68 0.34 0 0 Z " fill="#B9F240" transform="translate(204,279)"/>
<path d="M0 0 C0.99 0 1.98 0 3 0 C3.33 3.96 3.66 7.92 4 12 C2.68 12 1.36 12 0 12 C0 8.04 0 4.08 0 0 Z " fill="#BFEF55" transform="translate(303,220)"/>
<path d="M0 0 C1.32 0.33 2.64 0.66 4 1 C3.154375 1.86625 2.30875 2.7325 1.4375 3.625 C-0.72822322 6.20556598 -1.01398025 6.64350362 -0.875 10.1875 C-0.27022829 12.13140906 0.35621966 14.06865898 1 16 C-0.32 15.34 -1.64 14.68 -3 14 C-3.32374517 8.49633208 -3.53286034 4.56327794 0 0 Z " fill="#B6F342" transform="translate(298,217)"/>
<path d="M0 0 C-0.33 1.32 -0.66 2.64 -1 4 C-1.99 4 -2.98 4 -4 4 C-4 5.98 -4 7.96 -4 10 C-4.33 10 -4.66 10 -5 10 C-5 7.69 -5 5.38 -5 3 C-7.64 3.66 -10.28 4.32 -13 5 C-10.83470418 2.58355702 -8.97842441 1.36405829 -5.9375 0.25 C-4.89916016 -0.14445313 -4.89916016 -0.14445313 -3.83984375 -0.546875 C-2 -1 -2 -1 0 0 Z " fill="#B6F142" transform="translate(262,195)"/>
<path d="M0 0 C1.98 0.495 1.98 0.495 4 1 C4 2.98 4 4.96 4 7 C3.01 7.33 2.02 7.66 1 8 C0.34 7.34 -0.32 6.68 -1 6 C-0.625 2.875 -0.625 2.875 0 0 Z " fill="#B4F02A" transform="translate(123,258)"/>
<path d="M0 0 C0.93423645 3.01031744 1.04449911 3.86650268 0 7 C-0.99 7 -1.98 7 -3 7 C-3.33 7.66 -3.66 8.32 -4 9 C-4.33 6.69 -4.66 4.38 -5 2 C-2 0 -2 0 0 0 Z " fill="#B6F22A" transform="translate(330,208)"/>
<path d="M0 0 C1.32 0 2.64 0 4 0 C4 1.98 4 3.96 4 6 C2.68 6.33 1.36 6.66 0 7 C-0.93423645 3.98968256 -1.04449911 3.13349732 0 0 Z " fill="#BAF53A" transform="translate(372,274)"/>
<path d="M0 0 C1.98 0.99 1.98 0.99 4 2 C4 5.63 4 9.26 4 13 C3.01 13.495 3.01 13.495 2 14 C1.93941406 13.40832031 1.87882812 12.81664062 1.81640625 12.20703125 C1.37987629 8.09021792 0.91328654 4.04455467 0 0 Z " fill="#B7F43F" transform="translate(121,219)"/>
<path d="M0 0 C3.38608737 1.4511803 5.81173659 3.00126866 8 6 C7.875 9.6875 7.875 9.6875 7 13 C6.01 13.495 6.01 13.495 5 14 C4.96132812 13.11248047 4.96132812 13.11248047 4.921875 12.20703125 C4.54295586 6.9279987 3.89363339 3.89363339 0 0 Z " fill="#B9F638" transform="translate(145,204)"/>
<path d="M0 0 C0.66 0 1.32 0 2 0 C3.42944945 2.35438733 4.08661261 3.48032433 3.625 6.25 C3.41875 6.8275 3.2125 7.405 3 8 C1.68 8 0.36 8 -1 8 C-0.67 5.36 -0.34 2.72 0 0 Z " fill="#C7F04F" transform="translate(271,208)"/>
<path d="M0 0 C0 2.31 0 4.62 0 7 C-1.65 6.67 -3.3 6.34 -5 6 C-4.625 3.5625 -4.625 3.5625 -4 1 C-2 0 -2 0 0 0 Z " fill="#B1F530" transform="translate(250,258)"/>
<path d="M0 0 C2 2 2 2 2.125 5.125 C2.08375 6.07375 2.0425 7.0225 2 8 C0.68 8 -0.64 8 -2 8 C-1.125 1.125 -1.125 1.125 0 0 Z " fill="#BCF141" transform="translate(174,271)"/>
<path d="M0 0 C1.051875 0.2475 1.051875 0.2475 2.125 0.5 C5.13888194 1.02415338 7.94713625 1.07099683 11 1 C10.67 1.66 10.34 2.32 10 3 C7.71484375 3.6328125 7.71484375 3.6328125 4.9375 4.125 C4.01839844 4.29257813 3.09929687 4.46015625 2.15234375 4.6328125 C1.08693359 4.81457031 1.08693359 4.81457031 0 5 C0 3.35 0 1.7 0 0 Z " fill="#B1F62A" transform="translate(335,246)"/>
<path d="M0 0 C2.46324069 3.69486103 2.38991688 5.63293092 2 10 C0.625 11.9375 0.625 11.9375 -1 13 C-1.66 13 -2.32 13 -3 13 C-2.68289062 12.43796875 -2.36578125 11.8759375 -2.0390625 11.296875 C-0.93125475 8.84803683 -0.61024601 6.91612145 -0.375 4.25 C-0.30023438 3.45078125 -0.22546875 2.6515625 -0.1484375 1.828125 C-0.09945312 1.22484375 -0.05046875 0.6215625 0 0 Z " fill="#B7EE3E" transform="translate(239,234)"/>
<path d="M0 0 C2.64 0 5.28 0 8 0 C9.66666667 3.33333333 11.33333333 6.66666667 13 10 C11.68 9.34 10.36 8.68 9 8 C9 6.68 9 5.36 9 4 C8.01 4 7.02 4 6 4 C6 3.34 6 2.68 6 2 C3.03 1.505 3.03 1.505 0 1 C0 0.67 0 0.34 0 0 Z " fill="#B7EF47" transform="translate(248,233)"/>
<path d="M0 0 C3.24208567 0.35049575 4.61527704 0.56221181 6.8125 3.0625 C7.204375 3.701875 7.59625 4.34125 8 5 C7.34 5.66 6.68 6.32 6 7 C5.01 6.67 4.02 6.34 3 6 C3 4.68 3 3.36 3 2 C2.01 2 1.02 2 0 2 C0 1.34 0 0.68 0 0 Z " fill="#B9F22F" transform="translate(351,207)"/>
<path d="M0 0 C0 0.99 0 1.98 0 3 C-6.435 3.495 -6.435 3.495 -13 4 C-8.54920347 0.6619026 -5.48278388 0 0 0 Z " fill="#B8F03A" transform="translate(210,209)"/>
<path d="M0 0 C0.99 0.33 1.98 0.66 3 1 C3.33 1.99 3.66 2.98 4 4 C3.67 4.66 3.34 5.32 3 6 C0.4375 6.625 0.4375 6.625 -2 7 C-2.33 6.34 -2.66 5.68 -3 5 C-1.5625 2.375 -1.5625 2.375 0 0 Z " fill="#A4FC19" transform="translate(273,198)"/>
<path d="M0 0 C0.66 0 1.32 0 2 0 C2.33 2.31 2.66 4.62 3 7 C1.68 7 0.36 7 -1 7 C-1.04254356 5.00045254 -1.04080783 2.99958364 -1 1 C-0.67 0.67 -0.34 0.34 0 0 Z " fill="#C2E53F" transform="translate(231,272)"/>
<path d="M0 0 C0.33 0 0.66 0 1 0 C1 4.29 1 8.58 1 13 C0.01 13.495 0.01 13.495 -1 14 C-2.15837573 10.52487282 -1.77265943 8.86329714 -1.0625 5.3125 C-0.86785156 4.31863281 -0.67320312 3.32476562 -0.47265625 2.30078125 C-0.31667969 1.54152344 -0.16070312 0.78226563 0 0 Z " fill="#C6D779" transform="translate(358,251)"/>
<path d="M0 0 C1.32 0 2.64 0 4 0 C5.61949011 2.57213134 6.04408751 3.67669159 5.625 6.75 C5.41875 7.4925 5.2125 8.235 5 9 C2.69 9 0.38 9 -2 9 C-2 8.67 -2 8.34 -2 8 C-0.35 7.67 1.3 7.34 3 7 C2.42547254 3.06924356 2.42547254 3.06924356 0 0 Z " fill="#B4F13F" transform="translate(202,250)"/>
<path d="M0 0 C0.33 0 0.66 0 1 0 C1.02709444 2.08326131 1.04643873 4.16662441 1.0625 6.25 C1.07410156 7.41015625 1.08570313 8.5703125 1.09765625 9.765625 C1.01782092 12.40977128 0.78643778 14.49826091 0 17 C-0.66 17 -1.32 17 -2 17 C-1.855625 16.05125 -1.71125 15.1025 -1.5625 14.125 C-0.88802722 9.43259653 -0.44623104 4.71865588 0 0 Z " fill="#AFEE40" transform="translate(239,217)"/>
<path d="M0 0 C2.72426311 2.35277269 3.8141763 4.62496331 5 8 C5.66 8 6.32 8 7 8 C7 8.66 7 9.32 7 10 C6.01 10 5.02 10 4 10 C4 9.01 4 8.02 4 7 C2.35 7 0.7 7 -1 7 C-1 6.34 -1 5.68 -1 5 C-0.34 5 0.32 5 1 5 C0.67 3.35 0.34 1.7 0 0 Z " fill="#B7EF48" transform="translate(299,233)"/>
<path d="M0 0 C0.66 0.33 1.32 0.66 2 1 C1.67 1.33 1.34 1.66 1 2 C0.63239269 4.32817964 0.29758419 6.6618385 0 9 C-0.66 9 -1.32 9 -2 9 C-2.33 10.32 -2.66 11.64 -3 13 C-3.08121924 11.39667209 -3.13929134 9.79215974 -3.1875 8.1875 C-3.22230469 7.29417969 -3.25710938 6.40085938 -3.29296875 5.48046875 C-2.95081002 2.58352485 -2.24606427 1.77444972 0 0 Z " fill="#B7F035" transform="translate(289,219)"/>
<path d="M0 0 C-0.33 1.32 -0.66 2.64 -1 4 C-1.99 4 -2.98 4 -4 4 C-4.33 3.34 -4.66 2.68 -5 2 C-7.01669827 0.86649466 -7.01669827 0.86649466 -9 0 C-5.62182575 -0.84454356 -3.32534757 -1.10844919 0 0 Z " fill="#C3F340" transform="translate(178,199)"/>
<path d="M0 0 C-1.24976756 3.65316671 -1.67098753 4.78065836 -5 7 C-5.33 6.01 -5.66 5.02 -6 4 C-6.33 3.34 -6.66 2.68 -7 2 C-2.25 0 -2.25 0 0 0 Z " fill="#B4F335" transform="translate(159,233)"/>
<path d="M0 0 C3.3 0 6.6 0 10 0 C10 0.66 10 1.32 10 2 C9.34 2 8.68 2 8 2 C8 2.66 8 3.32 8 4 C2.25 2.25 2.25 2.25 0 0 Z " fill="#B0F23B" transform="translate(257,224)"/>
<path d="M0 0 C1.32 0 2.64 0 4 0 C4.33 1.65 4.66 3.3 5 5 C3.35 4.67 1.7 4.34 0 4 C0 2.68 0 1.36 0 0 Z " fill="#B6F92D" transform="translate(139,218)"/>
<path d="M0 0 C0.99 0.495 0.99 0.495 2 1 C3.17169312 4.98375661 3.08089427 8.87439224 3 13 C2.67 13 2.34 13 2 13 C0.24252386 8.49646738 -0.19294408 4.82360189 0 0 Z " fill="#BBF23E" transform="translate(131,199)"/>
<path d="M0 0 C0.66 0.33 1.32 0.66 2 1 C2 3.31 2 5.62 2 8 C1.01 7.67 0.02 7.34 -1 7 C-0.67 4.69 -0.34 2.38 0 0 Z " fill="#B8EB46" transform="translate(124,251)"/>
<path d="M0 0 C0 0.33 0 0.66 0 1 C-1.98 1 -3.96 1 -6 1 C-6 1.66 -6 2.32 -6 3 C-7.65 2.67 -9.3 2.34 -11 2 C-11 1.34 -11 0.68 -11 0 C-6.94952424 -1.35015859 -4.2079832 -0.62084998 0 0 Z " fill="#B9F827" transform="translate(255,234)"/>
<path d="M0 0 C0.33 1.65 0.66 3.3 1 5 C-1.31 4.67 -3.62 4.34 -6 4 C-2.25 0 -2.25 0 0 0 Z " fill="#AFF530" transform="translate(297,215)"/>
<path d="M0 0 C0.33 0 0.66 0 1 0 C1.33 3.63 1.66 7.26 2 11 C1.01 11.33 0.02 11.66 -1 12 C-0.67 8.04 -0.34 4.08 0 0 Z " fill="#B4EA45" transform="translate(314,256)"/>
</svg>
